<?xml version="1.0" encoding="UTF-8" standalone="no"?>
<svg
   xmlns:dc="http://purl.org/dc/elements/1.1/"
   xmlns:cc="http://creativecommons.org/ns#"
   xmlns:rdf="http://www.w3.org/1999/02/22-rdf-syntax-ns#"
   xmlns:svg="http://www.w3.org/2000/svg"
   xmlns="http://www.w3.org/2000/svg"
   xmlns:sodipodi="http://sodipodi.sourceforge.net/DTD/sodipodi-0.dtd"
   xmlns:inkscape="http://www.inkscape.org/namespaces/inkscape"
   version="1.1"
   id="Layer_1"
   width="428.770"
   height="600"
   viewBox="0 0 178.729 250.105"
   inkscape:version="0.47 r22583"
   sodipodi:docname="Skull_and_brain_normal_human.svg">
  <metadata
     id="metadata671">
    <rdf:RDF>
      <cc:Work
         rdf:about="">
        <dc:format>image/svg+xml</dc:format>
        <dc:type
           rdf:resource="http://purl.org/dc/dcmitype/StillImage" />
        <dc:title></dc:title>
        <dc:creator>
          <cc:Agent>
            <dc:title>Patrick J. Lynch</dc:title>
          </cc:Agent>
        </dc:creator>
        <dc:date>2006</dc:date>
        <cc:license
           rdf:resource="http://creativecommons.org/licenses/by/3.0/" />
      </cc:Work>
      <cc:License
         rdf:about="http://creativecommons.org/licenses/by/3.0/">
        <cc:permits
           rdf:resource="http://creativecommons.org/ns#Reproduction" />
        <cc:permits
           rdf:resource="http://creativecommons.org/ns#Distribution" />
        <cc:requires
           rdf:resource="http://creativecommons.org/ns#Notice" />
        <cc:requires
           rdf:resource="http://creativecommons.org/ns#Attribution" />
        <cc:permits
           rdf:resource="http://creativecommons.org/ns#DerivativeWorks" />
      </cc:License>
    </rdf:RDF>
  </metadata>
  <defs
     id="defs669">
    <inkscape:perspective
       sodipodi:type="inkscape:persp3d"
       inkscape:vp_x="0 : 300 : 1"
       inkscape:vp_y="0 : 1000 : 0"
       inkscape:vp_z="428.76999 : 300 : 1"
       inkscape:persp3d-origin="214.38499 : 200 : 1"
       id="perspective673" />
  </defs>
  <sodipodi:namedview
     pagecolor="#ffffff"
     bordercolor="#666666"
     borderopacity="1"
     objecttolerance="10"
     gridtolerance="10"
     guidetolerance="10"
     inkscape:pageopacity="0"
     inkscape:pageshadow="2"
     inkscape:window-width="1265"
     inkscape:window-height="889"
     id="namedview667"
     showgrid="false"
     inkscape:zoom="1.5733333"
     inkscape:cx="291.94376"
     inkscape:cy="379.03658"
     inkscape:window-x="169"
     inkscape:window-y="159"
     inkscape:window-maximized="0"
     inkscape:current-layer="Layer_1" />
  <path
     style="fill:#8f5946"
     id="path347"
     d="m 109.544,95.978 c 1.81,-0.02 3.547,0.431 5.355,0.625 2.637,0.285 5.215,0.504 7.84,0.312 3.852,-0.273 7.594,-1.465 10.859,-3.523 0.022,-0.016 0.03,-0.043 0.02,-0.065 -0.016,-0.027 -0.047,-0.031 -0.07,-0.021 -1.219,0.824 -2.647,1.18 -3.996,1.762 -2.141,0.923 -4.418,1.306 -6.711,1.582 -2.819,0.066 -5.594,-0.062 -8.434,-0.409 -1.645,-0.203 -3.227,-0.532 -4.863,-0.364 -0.026,0 -0.047,0.022 -0.047,0.051 0.001,0.027 0.02,0.05 0.047,0.05 l 0,0 z" />
  <path
     style="fill:#8f5946"
     id="path349"
     d="m 134.173,93.033 c 0.543,-0.375 1.146,-0.638 1.711,-0.97 0.048,-0.022 0.066,-0.073 0.043,-0.121 -0.02,-0.043 -0.073,-0.062 -0.116,-0.043 -0.574,0.333 -1.117,0.716 -1.691,1.048 l 0,0 c -0.022,0.016 -0.031,0.047 -0.016,0.069 0.014,0.024 0.046,0.033 0.069,0.017 l 0,0 z" />
  <path
     style="fill:#8f5946"
     id="path395"
     d="m 85.759,91.728 c 0.242,0.039 0.47,0.164 0.707,0.192 1.191,0.129 2.359,0.004 3.552,0.144 1.551,0.185 3.035,0.228 4.582,0.614 0.862,0.214 1.604,0.585 2.457,0.812 1.371,0.362 2.746,0.487 4.008,1.101 1.108,0.223 2.211,0.449 3.289,0.797 1.612,0.165 3.137,0.711 4.776,0.902 0.617,0.075 1.191,-0.117 1.802,-0.199 0.973,-0.129 1.918,0.104 2.887,0.012 1.184,-0.112 2.332,-0.362 3.504,-0.5 1.914,-0.793 4.051,-0.965 5.867,-2 0.022,-0.012 0.031,-0.043 0.02,-0.065 -0.016,-0.024 -0.047,-0.032 -0.069,-0.021 -0.984,0.57 -2.066,0.801 -3.207,1.051 -1.023,0.224 -1.931,0.578 -2.945,0.72 -1.078,0.144 -2.098,0.343 -3.168,0.437 -0.91,0.075 -1.805,-0.094 -2.711,-0.046 -0.438,0.023 -0.855,0.199 -1.277,0.21 -1.328,0.047 -2.608,-0.324 -3.944,-0.637 -0.988,-0.23 -1.914,-0.332 -2.88,-0.621 -0.948,-0.281 -1.897,-0.383 -2.815,-0.773 -0.953,-0.402 -2,-0.406 -2.988,-0.719 -1.309,-0.414 -2.527,-0.906 -3.897,-1.089 -1.134,-0.153 -2.224,-0.219 -3.353,-0.316 -1.395,-0.121 -2.801,0.188 -4.168,-0.105 l 0,0 c -0.027,-0.004 -0.055,0.016 -0.062,0.039 -0.01,0.025 0.01,0.052 0.033,0.06 l 0,0 z" />
  <path
     style="fill:none;fill-opacity:1"
     id="path421"
     d="m 42.224,20.271 c 1.25,-0.875 5,-3.03 6.438,-3.812 1.438,-0.781 2.938,-1.718 4.156,-2.281 1.218,-0.562 1.688,-0.875 2.469,-1.375 0.781,-0.5 1.969,-1.344 3.406,-2 1.438,-0.657 2.5,-1.312 4.469,-1.625 1.969,-0.312 4.531,-0.594 6.062,-0.688 1.53,-0.095 2.53,-0.095 4.375,-0.345 1.844,-0.25 2.625,-0.218 3.875,-0.593 1.25,-0.375 3.25,-0.844 4.219,-0.719 0.969,0.125 3,0.312 3.812,0.469 0.812,0.156 3.062,0.688 3.062,0.688 0,0 1.031,-0.188 1.562,-0.25 0.531,-0.062 2.062,-0.188 2.5,-0.157 0.438,0.032 1.688,0.25 2.47,0.407 0.78,0.155 1.688,0.562 2.344,0.593 0.656,0.032 2,0 2.812,-0.062 0.812,-0.062 2.47,-0.093 3.406,0.062 0.938,0.157 2.104,0.479 2.365,0.677 0.26,0.198 0.698,0.229 0.698,0.229 0,0 0.719,-0.22 1.155,-0.438 0.438,-0.219 1.188,-0.438 1.875,-0.438 0.688,0 1.875,0.093 2.812,0.343 0.937,0.25 2.125,0.844 2.906,1.282 0.78,0.438 2,1.28 2.78,1.593 0.781,0.312 1.97,0.469 2.656,0.532 0.688,0.062 2.062,0.188 2.625,0.343 0.562,0.157 2.344,0.719 3.125,1.157 0.781,0.438 2.812,1.875 4.094,2.468 1.281,0.594 2.375,1.5 3.188,1.844 0.812,0.343 1.344,0.656 1.906,0.812 0.562,0.156 3.875,1.094 4.688,1.469 0.813,0.375 3.219,1.906 3.969,2.594 0.75,0.687 2.72,2.781 3.095,3.593 0.375,0.812 1,2.188 1.155,2.594 0.156,0.406 0.375,0.906 0.375,0.906 0,0 0.875,0.594 1.47,0.969 0.594,0.375 2.094,1.469 2.844,2.438 0.75,0.968 1.5,2 2.469,3.343 0.969,1.344 2.375,3.907 2.75,4.907 0.375,1 1.062,3.906 1.125,4.343 0.063,0.438 0.438,0.719 0.438,0.719 0,0 0.875,0.969 1.28,1.156 0.406,0.188 1.595,1.094 2.156,1.657 0.562,0.562 1.219,1.406 1.594,2.156 0.375,0.75 0.865,1.989 0.97,2.781 0.104,0.793 0.155,2.312 0.094,2.719 -0.062,0.406 0.281,1.344 0.281,1.344 0,0 0.5,0.906 0.812,1.406 0.312,0.5 0.969,1.469 1.281,2.094 0.312,0.625 1.156,2.625 1.344,3.562 0.188,0.938 0.312,3.281 0.188,4.219 -0.124,0.937 -0.438,3.312 -0.688,4.188 -0.25,0.876 -0.656,2.562 -0.844,2.907 -0.188,0.343 -0.25,1.656 -0.281,2.343 -0.031,0.688 -0.344,3.375 -0.625,4.188 -0.281,0.812 -0.781,2.219 -1.188,2.844 -0.407,0.625 -1.72,2.062 -2.25,2.468 -0.531,0.407 -2.312,1.25 -3.47,1.344 -1.155,0.094 -3.625,-0.188 -4.5,-0.406 0,0 -3,-0.781 -3.688,-0.875 -0.688,-0.094 -3.562,-0.094 -4.406,0.062 -0.844,0.157 -4.656,1.125 -5.531,1.469 -0.875,0.344 -3.844,1.562 -4.969,1.969 -1.125,0.407 -4.219,1.562 -4.938,1.844 -0.72,0.281 -3.25,1.25 -4.345,1.5 -1.094,0.25 -3.03,0.75 -4,0.906 -0.969,0.156 -4.062,0.594 -4.844,0.594 -0.782,0 -2.969,0.093 -3.875,0.188 -0.906,0.094 -2.75,0.469 -3.656,0.781 -0.905,0.313 -3.375,1 -4.094,1.312 -0.719,0.312 -4.031,1.406 -5.125,1.625 -1.094,0.219 -4.438,1.062 -5.562,1.062 -1.124,0 -4.095,-0.218 -4.906,-0.156 -0.812,0.062 -3.562,0.375 -4.625,0.469 -1.063,0.094 -3.719,0.531 -4.938,0.531 -1.219,0 -2.938,-0.25 -3.905,-0.469 -0.97,-0.218 -2.562,-0.75 -4.095,-1.218 0,0 -2.75,-1.125 -4.125,-1.594 -1.375,-0.469 -4.562,-1.188 -5.469,-1.75 -0.907,-0.562 -2.969,-1.438 -3.562,-2.062 0,0 -1.625,-1.843 -2,-2.562 -0.375,-0.719 -1.095,-2.594 -1.125,-3.406 -0.031,-0.813 0.188,-2.812 0.312,-3.407 0.125,-0.593 0.531,-2 0.844,-2.593 0.312,-0.594 1.22,-1.812 1.22,-1.812 0,0 -0.75,0.562 -1.125,0.594 -0.375,0.032 -2.031,0.031 -2.875,-0.344 -0.845,-0.375 -4.845,-1.969 -5.625,-2.406 -0.781,-0.438 -3.75,-1.75 -4.938,-2.25 -1.188,-0.5 -2.844,-1.281 -4.031,-1.688 -1.188,-0.406 -3,-1.031 -4.062,-1.25 -1.062,-0.218 -2.594,-0.938 -3.562,-1.531 -0.968,-0.593 -2.094,-1.344 -2.625,-1.969 -0.53,-0.625 -1.812,-2.031 -2.155,-2.562 -0.345,-0.531 -1.156,-1.625 -1.562,-2 -0.406,-0.375 -1.656,-1.875 -2.156,-2.969 -0.5,-1.094 -1.125,-2.625 -1.405,-3.656 -0.281,-1.031 -0.375,-2.25 -0.438,-2.75 -0.062,-0.5 -0.156,-1.219 -0.156,-1.219 0,0 -0.375,-0.875 -0.562,-1.5 -0.188,-0.625 -0.344,-2.625 -0.25,-3.562 0.094,-0.937 0.375,-2.469 0.594,-3.312 0.219,-0.845 1.312,-4.125 1.312,-4.125 0,0 0.094,-1.47 0.219,-2.062 0.125,-0.594 0.531,-2.188 0.875,-2.812 0.344,-0.624 1.5,-2.345 1.938,-3 0.438,-0.657 2.438,-3.312 2.438,-3.312 0,0 1.156,-2.188 1.562,-2.812 0.406,-0.624 1.845,-2.72 2.688,-3.5 0.844,-0.782 3.219,-3.095 3.969,-3.657 0.749,-0.566 3.185,-2.315 3.185,-2.315 z" />
  <path
     style="fill:#8f5946"
     id="path423"
     d="m 67.535,98.633 c 0.387,0.072 0.711,0.306 1.084,0.421 1.094,0.342 2.107,0.785 3.141,1.233 0.029,0.013 0.064,0 0.078,-0.032 0.013,-0.029 -0.002,-0.064 -0.03,-0.078 C 71.101,99.889 70.56,99.32 69.829,99.07 69.485,98.951 69.161,98.825 68.794,98.754 68.37,98.671 67.971,98.633 67.565,98.535 l 0,0 c -0.025,-0.009 -0.054,0.008 -0.062,0.035 -0.008,0.027 0.006,0.055 0.032,0.063 l 0,0 z" />
  <path
     style="fill:none"
     id="path425"
     d="m 105.693,100.458 c 0,0 4.062,-1.562 5.25,-1.875 1.188,-0.313 3.688,-1.062 4.844,-1.093 1.156,-0.032 4.969,-0.22 6.156,-0.345 1.187,-0.125 4.375,-0.812 5.688,-1.188 1.313,-0.376 4.25,-1.312 5.625,-1.812 1.375,-0.5 4.938,-1.875 6.125,-2.312 1.188,-0.438 3.438,-1.375 4.625,-1.75 1.188,-0.375 3.688,-1.125 4.875,-1.125 1.188,0 3,-0.25 3.812,0 0.812,0.25 2,0.875 2.25,1.75 0.25,0.875 0.812,2.062 0.688,3.062 -0.124,1 -0.188,2.562 -0.938,3.438 -0.75,0.876 -0.812,1 -1.438,1.688 -0.626,0.688 -1.062,1.312 -1.75,1.875 -0.688,0.563 -1.25,1.25 -1.688,1.75 -0.438,0.5 -0.75,0.938 -1.188,1.188 -0.438,0.25 -1.125,0.562 -1.125,0.562 0,0 0,0.5 -0.25,1 -0.25,0.5 -1.438,1.312 -1.438,1.312 l -0.375,0.938 c 0,0 -0.188,0.562 -0.75,1.062 -0.562,0.5 -1.75,1.312 -1.75,1.312 l -1,0.812 c 0,0 -0.875,0.812 -1.625,1.125 -0.75,0.312 -1.25,0.625 -1.812,0.938 -0.562,0.313 -1.562,1.125 -2.5,1.312 -0.938,0.187 -3.75,0.5 -5.125,0.438 -1.375,-0.062 -5,-0.25 -6.25,-0.562 -1.25,-0.312 -4.062,-1.562 -5.062,-2.188 -1,-0.626 -3.875,-2.812 -5,-3.5 -1.125,-0.688 -2.562,-1.75 -3.625,-2.312 -1.063,-0.562 -1.75,-1 -2.75,-1.688 -1,-0.688 -1.625,-1.125 -1.812,-1.688 -0.187,-0.562 -0.687,-2.124 -0.687,-2.124 z" />
  <path
     style="fill:#8f5946"
     id="path429"
     d="m 82.995,10.011 c 0.234,0.037 0.442,-0.057 0.667,-0.104 2.642,-0.604 4.865,-2.006 7.558,-2.12 2.036,-0.089 4.036,0.286 5.957,0.911 2.406,0.297 4.812,-0.438 7.24,0.239 1.245,0.345 2.411,0.88 3.203,1.933 1.276,1.697 1.401,3.808 1.359,5.802 -0.047,2.427 -1.13,4.62 -2.142,6.818 -0.38,0.822 -0.516,1.708 -0.37,2.608 0.021,0.104 0.12,0.177 0.225,0.161 0.108,-0.021 0.182,-0.12 0.162,-0.224 -0.245,-1.553 0.583,-2.954 1.219,-4.329 0.724,-1.558 1.224,-3.178 1.302,-4.875 0.078,-1.823 -0.104,-3.683 -0.932,-5.343 C 106.662,7.888 102.089,8.107 98.62,8.384 97.208,8.493 95.948,7.816 94.542,7.634 92.781,7.41 91.125,7.41 89.328,7.733 c -2.099,0.375 -3.646,1.604 -5.703,2.078 -0.208,0.047 -0.411,0.146 -0.63,0.095 -0.025,0 -0.047,0.025 -0.047,0.052 0,0.027 0.021,0.053 0.047,0.053 l 0,0 z" />
  <path
     style="fill:#8f5946"
     id="path431"
     d="m 105.995,17.985 c -0.302,1.484 -0.052,3.021 0.37,4.464 -0.245,1.438 -0.094,2.88 -0.224,4.327 -0.104,1.234 -0.6,2.365 -1.37,3.387 -1.406,1.854 -2.75,3.552 -4.6,4.854 -2.349,2.729 -2.062,6.489 -2.988,9.844 -0.255,0.923 -0.803,1.683 -1.271,2.49 l 0,0 c -0.047,0.1 0,0.218 0.1,0.26 0.099,0.048 0.213,0 0.26,-0.099 1.338,-1.896 1.729,-4.167 2.037,-6.463 0.297,-2.167 0.792,-4.469 2.422,-6.016 1.807,-1.188 3.021,-2.917 4.37,-4.667 0.828,-1.068 1.307,-2.276 1.447,-3.583 0.104,-1.012 -0.042,-2.017 0.068,-3.026 0.026,-0.265 0.031,-0.536 0.109,-0.807 0.047,-0.161 0.037,-0.345 -0.005,-0.511 -0.37,-1.495 -0.938,-2.933 -0.62,-4.438 0,-0.031 -0.021,-0.052 -0.047,-0.059 -0.027,-0.004 -0.053,0.016 -0.058,0.043 l 0,0 z" />
  <path
     style="fill:#8f5946"
     id="path433"
     d="m 98.75,30.735 c -0.302,1.298 0.297,2.589 0.698,3.823 0.135,0.417 0.141,0.854 0.13,1.292 0,0.12 0.099,0.218 0.219,0.218 0.12,0 0.22,-0.099 0.225,-0.218 0.047,-0.49 0.016,-0.979 -0.13,-1.454 -0.37,-1.224 -1.109,-2.358 -1.047,-3.646 0.005,-0.026 -0.011,-0.052 -0.043,-0.059 -0.026,-0.003 -0.052,0.017 -0.052,0.044 l 0,0 z" />
  <path
     style="fill:#8f5946"
     id="path435"
     d="m 66.578,21.511 c 1.849,-0.24 3.684,-0.495 5.573,-0.219 1.562,0.229 3.052,0.49 4.432,1.344 1.401,0.865 2.433,2.037 3.562,3.156 0.052,0.062 0.146,0.067 0.203,0.016 0.062,-0.052 0.067,-0.141 0.016,-0.203 -1.287,-1.453 -2.609,-3.005 -4.458,-3.76 -1.713,-0.703 -3.531,-0.901 -5.349,-0.886 -1.333,0.011 -2.646,0.358 -3.979,0.448 -0.026,0 -0.047,0.025 -0.047,0.052 0,0.026 0.021,0.052 0.047,0.052 l 0,0 z" />
  <path
     style="fill:#8f5946"
     id="path437"
     d="m 79.568,17.839 c -0.635,0.615 -1.344,1.057 -2.12,1.537 -1.234,0.76 -1.427,2.396 -0.625,3.495 0.062,0.094 0.182,0.125 0.276,0.062 0.094,-0.057 0.125,-0.177 0.062,-0.271 -0.713,-1.005 -0.479,-2.387 0.557,-3.13 0.715,-0.517 1.292,-1.053 1.912,-1.62 0.021,-0.017 0.021,-0.047 0.005,-0.068 -0.016,-0.021 -0.046,-0.026 -0.067,-0.005 l 0,0 z" />
  <path
     style="fill:#8f5946"
     id="path439"
     d="m 74.859,21.589 c 0.281,0.177 0.562,0.349 0.958,0.229 l 0.135,0.006 c 0.062,-0.011 0.12,-0.053 0.151,-0.115 l -0.078,0.062 c 0.15,-0.12 0.312,-0.224 0.37,-0.453 l 0.078,-0.135 -0.374,-0.083 0.016,-0.032 c -0.099,0.22 -0.094,0.458 -0.182,0.678 -0.017,0.052 -0.073,0.108 -0.12,0.114 -0.073,0 -0.142,-0.057 -0.213,-0.094 l -0.017,0.392 -0.172,-0.1 0.021,0.031 c 0.036,0.062 0.104,0.099 0.172,0.099 l 0.13,-0.005 c 0.448,-0.066 0.865,-0.417 0.833,-0.9 l -0.005,-0.006 c 0,-0.057 -0.026,-0.113 -0.073,-0.15 -0.078,-0.062 -0.193,-0.047 -0.255,0.031 l -0.062,0.099 c -0.021,0.151 -0.125,0.255 -0.191,0.386 l -0.073,0.213 0.083,-0.099 -0.042,0.021 0,0 -0.047,0.037 0.229,0.125 -0.005,-0.03 0,0 -0.005,-0.017 -0.025,0.104 0.052,-0.088 c 0.213,-0.412 0.13,-0.948 0.483,-1.287 l 0.037,-0.067 -0.099,0.073 0.062,-0.017 c 0.048,-0.01 0.089,-0.042 0.104,-0.089 l 0.031,-0.083 c 0.005,-0.01 0.005,-0.016 0.011,-0.021 v -0.005 l -0.292,0.01 0.021,0.052 0.011,-0.125 -0.083,0.161 c -0.184,0.688 -0.637,1.443 -0.1,2.094 0.037,0.068 0.125,0.095 0.198,0.059 0.068,-0.042 0.094,-0.13 0.058,-0.198 -0.411,-0.547 -0.089,-1.182 0.114,-1.734 l 0.073,-0.224 c 0.021,-0.036 0.026,-0.083 0.016,-0.12 l -0.016,-0.057 c -0.016,-0.047 -0.058,-0.088 -0.109,-0.1 -0.083,-0.021 -0.167,0.031 -0.183,0.109 v 0.011 l 0.005,-0.021 -0.031,0.083 0.104,-0.089 -0.062,0.01 c -0.042,0.011 -0.078,0.042 -0.099,0.079 l -0.172,0.218 c -0.146,0.391 -0.396,0.75 -0.1,1.271 l -0.286,-0.088 c -0.026,0.031 -0.036,0.067 -0.031,0.104 v 0.021 l 0,0 v 0.031 c 0,0.021 0.005,0.036 0.016,0.057 0.042,0.078 0.136,0.109 0.214,0.073 l 0.058,-0.021 0,0 0.042,-0.017 c 0.037,-0.021 0.067,-0.058 0.083,-0.099 l 0.135,-0.292 c 0.037,-0.073 0.078,-0.141 0.12,-0.208 -0.109,-0.036 -0.219,-0.073 -0.328,-0.109 l 0.37,0.026 c 0.025,-0.031 0.042,-0.073 0.042,-0.114 l -0.375,0.177 c 0,-0.01 0,-0.015 0,-0.025 -0.042,0.146 -0.151,0.229 -0.276,0.297 l -0.312,0.083 0.172,0.099 -0.024,-0.037 c -0.03,-0.057 -0.099,-0.099 -0.172,-0.094 l 0.109,0.433 c 0.464,0.161 0.672,-0.37 0.724,-0.725 l 0.083,-0.38 0,0 -0.448,0.114 c -0.078,0.016 -0.088,0.094 -0.13,0.141 l -0.172,0.192 0.172,-0.114 -0.141,0.015 c -0.25,0.193 -0.589,0.131 -0.865,0.021 l 0,0 c -0.042,-0.016 -0.094,0.005 -0.109,0.047 -0.015,0.042 0.006,0.094 0.048,0.109 l 0.01,-0.03 z" />
  <path
     style="fill:#8f5946"
     id="path441"
     d="m 89.453,13.604 c 0.517,0.609 0.767,1.35 0.964,2.137 0.203,0.822 0.359,1.625 0.292,2.447 -0.057,0.672 0.026,1.323 -0.057,1.99 -0.229,1.88 -1.068,3.521 -1.886,5.203 -0.911,1.891 -2.13,3.401 -3.35,5.203 -1.308,1.922 -2.78,3.787 -5.12,4.079 -1.566,0.197 -2.995,-0.568 -4.344,-1.354 -2.156,-1.266 -3.802,-2.787 -5.917,-4.213 -0.787,-0.531 -1.625,-0.823 -2.526,-0.984 -0.036,-0.01 -0.067,0.011 -0.077,0.042 -0.012,0.037 0.01,0.068 0.042,0.078 1.655,0.401 3,1.434 4.317,2.553 2.142,1.822 4.22,3.562 7.026,4.255 0.818,0.203 1.608,0.224 2.38,-0.073 3.391,-1.312 4.927,-4.828 6.984,-7.547 1.042,-1.823 2.005,-3.662 2.572,-5.729 0.521,-1.896 0.562,-3.787 0.104,-5.719 -0.219,-0.938 -0.797,-1.667 -1.323,-2.422 -0.016,-0.021 -0.047,-0.031 -0.068,-0.016 -0.018,0.013 -0.028,0.045 -0.013,0.07 l 0,0 z" />
  <path
     style="fill:#8f5946"
     id="path443"
     d="m 95.833,14.808 c -0.24,1.078 -1.062,1.787 -1.858,2.505 -1.104,0.995 -2.193,1.828 -3.048,3.109 -0.302,0.453 -0.38,0.938 -0.521,1.427 l 0,0 c -0.036,0.104 0.021,0.218 0.13,0.25 0.104,0.036 0.219,-0.021 0.25,-0.125 0.167,-0.464 0.271,-0.927 0.557,-1.365 1.412,-2.167 3.938,-3.271 4.583,-5.771 0.011,-0.026 -0.005,-0.052 -0.03,-0.062 -0.026,-0.005 -0.057,0.006 -0.063,0.032 l 0,0 z" />
  <path
     style="fill:#8f5946"
     id="path445"
     d="m 80.641,34.922 c 0.386,-0.016 0.755,-0.182 1.136,-0.089 l 0.01,0.005 -0.141,-0.052 0.037,0.03 c 0.697,1.245 0.608,2.745 0.63,4.137 -0.517,3.219 -2.183,6.021 -4.25,8.646 -0.286,0.364 -0.62,0.833 -0.438,1.333 0.037,0.12 0.167,0.193 0.292,0.156 0.125,-0.036 0.192,-0.167 0.156,-0.292 -0.104,-0.349 0.156,-0.646 0.349,-0.891 1.792,-2.293 3.229,-4.59 4.012,-7.35 0.557,-1.958 0.613,-4.213 -0.401,-6 L 81.924,34.461 C 81.889,34.43 81.836,34.409 81.789,34.409 H 81.59 c -0.317,0.155 -0.641,0.28 -0.974,0.391 -0.042,0.005 -0.068,0.047 -0.057,0.088 0.005,0.042 0.047,0.067 0.088,0.057 l -0.006,-0.023 z" />
  <path
     style="fill:#8f5946"
     id="path447"
     d="m 82.479,36.553 c -0.12,-1.016 0.047,-2.078 0.745,-2.86 l 0.135,-0.167 c 0.005,-0.016 0.011,-0.03 0.011,-0.047 0.005,-0.094 -0.062,-0.177 -0.156,-0.182 l -0.052,-0.01 C 83.074,33.282 83,33.339 82.98,33.422 l -0.005,0.036 0.005,-0.021 -0.037,0.104 c -0.432,0.812 -0.682,1.698 -0.849,2.599 l -0.031,0.042 0.308,0.135 0.042,-0.119 c 0.151,-0.892 0.443,-1.75 0.963,-2.495 L 83.518,33.5 c 0.011,-0.017 0.016,-0.031 0.016,-0.047 l 0.021,-0.083 c 0.016,-0.095 -0.037,-0.183 -0.125,-0.213 -0.095,-0.026 -0.198,0.025 -0.225,0.125 l -0.031,0.094 0.053,-0.083 -0.142,0.141 c -0.297,0.448 -0.562,0.938 -1,1.267 l -0.021,-0.031 0.261,0.162 V 34.82 c 0.016,-0.057 0.026,-0.113 0.042,-0.172 0.021,0.005 0.037,0.012 0.057,0.017 0.062,-0.073 0.059,-0.188 -0.016,-0.255 -0.073,-0.062 -0.188,-0.058 -0.255,0.016 -0.13,0.026 -0.224,0.094 -0.005,0.479 l -0.203,-0.047 c 0,0.005 0.005,0.017 0.005,0.021 l 0.453,0.057 c 0.344,-0.328 0.609,-0.713 0.864,-1.108 l 0.203,-0.261 c 0.021,-0.025 0.042,-0.052 0.052,-0.083 l 0.025,-0.099 -0.349,-0.088 -0.016,0.088 0.042,-0.083 -0.152,0.2 c -0.531,0.745 -0.808,1.62 -0.969,2.51 L 82.056,36.2 c -0.012,0.021 -0.012,0.042 -0.012,0.062 l 0.428,-0.13 c 0,0.005 0.005,0.011 0.005,0.016 0.135,-0.771 0.344,-1.536 0.688,-2.238 L 83.3,33.551 c 0.006,-0.005 0.006,-0.016 0.006,-0.021 l 0.005,-0.03 -0.178,0.135 h 0.053 l -0.053,-0.323 -0.261,0.26 c -0.75,0.845 -0.677,1.965 -0.495,3 0.005,0.026 0.031,0.048 0.058,0.042 0.029,-0.01 0.049,-0.035 0.044,-0.061 l 0,0 z" />
  <path
     style="fill:#8f5946"
     id="path449"
     d="m 58.755,45.354 c 0.797,1.297 2.011,2.188 3.365,2.87 3.26,1.646 6.62,0.146 10.01,-0.469 1.688,-0.307 3.5,-0.338 4.859,0.823 1.021,0.87 1.849,1.854 2.453,3.037 0.646,1.255 1.135,2.515 1.5,3.9 0.275,1.047 0.427,2.062 0.942,3.021 0.418,0.766 0.854,1.505 1.484,2.099 0.031,0.026 0.078,0.031 0.104,0 0.03,-0.026 0.03,-0.073 0.005,-0.104 -1.964,-2.715 -1.943,-6.203 -3.637,-9.146 -0.838,-1.458 -1.797,-2.906 -3.307,-3.635 -3.469,-1.667 -7.01,0.542 -10.537,0.797 -2.724,0.198 -5.525,-1.021 -7.161,-3.25 -0.016,-0.021 -0.047,-0.031 -0.067,-0.016 -0.023,0.016 -0.028,0.048 -0.013,0.073 l 0,0 z" />
  <path
     style="fill:#8f5946"
     id="path451"
     d="m 53.042,42.36 c 0.359,-1.562 1.229,-2.922 2.026,-4.292 1.292,-1.422 2.745,-2.552 4.422,-3.667 1.656,-1.099 3.479,-1.088 5.318,-1.229 0.917,-0.068 1.588,-0.771 2.463,-1.037 0.927,-0.281 1.896,0 2.672,0.537 0.037,0.021 0.078,0.01 0.099,-0.026 0.021,-0.036 0.01,-0.083 -0.025,-0.104 -0.97,-0.76 -2.255,-1.208 -3.422,-0.609 -0.708,0.359 -1.392,0.729 -2.168,0.875 -3.885,-0.391 -7.119,2.271 -9.655,4.892 -0.767,1.474 -1.531,2.979 -1.823,4.625 l 0,0 c -0.005,0.025 0.005,0.057 0.031,0.067 0.025,0.004 0.057,-0.006 0.062,-0.032 l 0,0 z" />
  <path
     style="fill:#8f5946"
     id="path453"
     d="m 87.719,46.167 c -2.448,3.781 0.104,8.192 1.886,11.688 0.594,1.958 0.557,4.906 -1.761,5.63 -0.12,0.036 -0.192,0.167 -0.156,0.292 0.037,0.12 0.167,0.193 0.292,0.156 1.114,-0.344 2.042,-1.292 2.281,-2.479 0.15,-0.755 0.135,-1.475 0.088,-2.225 -0.088,-1.505 -0.928,-2.745 -1.583,-4.072 -0.578,-1.178 -1.1,-2.312 -1.396,-3.625 -0.406,-1.818 -0.693,-3.745 0.438,-5.312 0.016,-0.026 0.005,-0.057 -0.021,-0.073 -0.021,-0.011 -0.053,-0.006 -0.068,0.02 l 0,0 z" />
  <path
     style="fill:#8f5946"
     id="path455"
     d="m 59.255,53.318 c 1.276,-1.994 3.72,-2.775 6.026,-2.458 2.651,0.37 4.833,2.142 5.781,4.583 1.308,3.381 1.162,7.35 3.958,10.059 1.474,1.422 3.557,1.828 5.447,1.191 0.125,-0.01 0.225,-0.119 0.22,-0.25 -0.011,-0.125 -0.12,-0.224 -0.25,-0.219 -1.531,0.526 -3.188,0.406 -4.547,-0.62 -0.767,-0.572 -1.317,-1.245 -1.808,-2.062 -1.557,-2.63 -1.448,-5.609 -2.599,-8.308 -0.661,-1.552 -1.729,-2.9 -3.219,-3.807 -2.942,-1.782 -7.642,-1.636 -9.125,1.817 -0.026,0.042 -0.011,0.099 0.025,0.12 0.042,0.025 0.1,0.01 0.12,-0.026 l -0.029,-0.02 z" />
  <path
     style="fill:#8f5946"
     id="path457"
     d="M 53.516,58.333 C 53.24,56.74 53.5,54.88 54.803,53.76 c 1.077,-0.932 2.547,-1.078 3.827,-0.521 1.328,0.577 2.267,1.635 3.026,2.869 1.141,1.854 1.849,3.74 2.688,5.683 1.011,2.338 2.822,4.281 5.155,5.287 0.047,0.03 0.115,0.016 0.142,-0.031 0.03,-0.047 0.016,-0.115 -0.031,-0.141 -2.177,-1.173 -3.87,-3.115 -4.875,-5.387 -0.792,-1.786 -1.479,-3.53 -2.432,-5.266 -1.256,-2.271 -3.636,-4.484 -6.35,-3.609 -0.816,0.267 -1.557,0.729 -2.036,1.5 -0.447,0.714 -0.667,1.458 -0.761,2.267 -0.078,0.667 0.167,1.286 0.255,1.938 0.005,0.026 0.031,0.046 0.058,0.042 0.031,-0.005 0.047,-0.026 0.047,-0.058 l 0,0 z" />
  <path
     style="fill:#8f5946"
     id="path459"
     d="m 49.188,64.803 c 2.38,-1.141 5.058,-0.312 7.208,1.208 1.865,1.312 3.358,2.604 5.271,3.823 2.406,1.537 5.167,2.089 7.864,1.505 0.047,-0.005 0.073,-0.047 0.068,-0.094 -0.011,-0.042 -0.053,-0.073 -0.1,-0.062 -2.37,0.184 -4.802,-0.099 -6.953,-1.316 -2.488,-1.407 -4.363,-3.323 -6.838,-4.787 -2.03,-1.193 -4.495,-1.412 -6.567,-0.365 l 0,0 c -0.026,0.01 -0.036,0.042 -0.021,0.068 0.01,0.025 0.042,0.035 0.068,0.02 l 0,0 z" />
  <path
     style="fill:#8f5946"
     id="path461"
     d="m 53.203,64.339 c 0.917,0.182 1.87,-0.167 2.771,0.115 l 0.114,0.01 -0.155,-0.099 0.016,0.03 c 0.016,0.037 0.047,0.068 0.083,0.089 l 0.083,0.042 -0.099,-0.119 0.016,0.062 c 0.016,0.057 0.058,0.104 0.109,0.125 l 0.037,0.016 0,0 0.021,0.011 -0.104,-0.115 0.011,0.026 c 0.104,0.667 0.224,1.354 0.719,1.858 L 56.82,66.338 c 0.031,0.052 0.083,0.083 0.141,0.089 0.095,0 0.172,-0.073 0.172,-0.167 v -0.02 l 0,0 -0.005,-0.012 c 0.005,-0.078 -0.052,-0.146 -0.13,-0.162 l -0.031,-0.005 0,0 -0.042,-0.005 0.073,0.037 -0.037,-0.031 C 56.353,65.365 55.956,64.115 54.836,64.208 H 54.74 c -0.042,0 -0.078,0.016 -0.109,0.042 l -0.083,0.066 c -0.021,0.017 -0.03,0.037 -0.042,0.053 -0.042,0.083 -0.01,0.183 0.073,0.224 l 0.017,0.01 c 0.021,0.012 0.047,0.017 0.072,0.017 h 0.053 c 0.4,0.042 0.817,-0.115 1.208,0.083 l 0.094,0.047 -0.068,-0.062 0.037,0.067 0.099,-0.229 -0.052,0.017 C 55.82,64.568 55.617,64.449 55.398,64.475 L 55.252,64.47 c -0.036,0 -0.072,0.01 -0.099,0.026 l -0.073,0.058 0,0 C 55.007,64.6 54.992,64.7 55.044,64.772 l 0.136,0.184 c 0.172,0.203 0.405,0.287 0.65,0.354 l 0.219,0.01 c 0.031,0.006 0.062,0 0.095,-0.015 0.072,-0.032 0.108,-0.125 0.072,-0.204 L 56.127,64.94 C 55.83,64.669 55.481,64.466 55.091,64.373 l -0.146,-0.058 0.099,0.142 -0.005,-0.037 -0.192,0.162 0,0 0.113,0.018 c 1.517,0.136 3.017,-0.604 3.933,-1.796 0.047,-0.037 0.052,-0.104 0.016,-0.151 -0.036,-0.047 -0.104,-0.052 -0.151,-0.016 -0.983,0.849 -2.161,1.557 -3.489,1.662 l -0.35,-0.021 c -0.016,-0.005 -0.037,-0.005 -0.052,0 -0.083,0.006 -0.146,0.083 -0.135,0.167 v -0.01 0.037 c 0,0.062 0.042,0.114 0.099,0.135 l 0.156,0.068 c 0.287,0.078 0.568,0.167 0.797,0.365 l 0.156,0.191 0.115,-0.213 -0.24,-0.025 h 0.005 c -0.052,-0.021 -0.104,-0.042 -0.156,-0.062 l -0.358,-0.339 -0.037,0.219 0.072,-0.052 -0.099,0.032 0.255,0.01 v -0.005 c 0.161,0.005 0.312,0.031 0.469,0.068 l 0.198,-0.031 c 0.017,-0.005 0.026,-0.011 0.042,-0.017 0.073,-0.042 0.1,-0.135 0.059,-0.214 L 56.228,64.54 C 56.211,64.514 56.186,64.488 56.16,64.477 l -0.208,-0.104 c -0.354,-0.142 -0.724,-0.037 -1.089,-0.073 -0.005,0.104 -0.01,0.208 -0.016,0.312 l -0.173,-0.317 0.073,0.016 -0.016,-0.01 0.031,0.276 0.083,-0.068 -0.104,0.037 h 0.245 l -0.005,0.005 c 0.88,0.068 1.135,1.099 1.682,1.641 l 0.125,0.142 c 0.021,0.016 0.047,0.031 0.073,0.037 l 0.037,0.015 0,0 0.031,0.005 -0.125,-0.162 -0.006,0.012 0,0 v 0.021 l 0,0 0.156,-0.276 c 0.005,0 0.005,-0.005 0.011,-0.005 -0.364,-0.38 -0.369,-0.88 -0.483,-1.358 L 56.44,64.394 C 56.419,64.342 56.382,64.3 56.331,64.286 l -0.021,-0.011 0,0 -0.042,-0.011 0.114,0.125 -0.016,-0.057 c -0.016,-0.053 -0.047,-0.1 -0.099,-0.12 l -0.083,-0.037 0.083,0.083 -0.017,-0.031 c -0.025,-0.062 -0.088,-0.099 -0.155,-0.104 l -0.114,-0.012 c -0.927,-0.182 -1.828,0.203 -2.755,0.142 l 0,0 c -0.026,-0.005 -0.053,0.01 -0.058,0.037 -0.006,0.018 0.009,0.043 0.035,0.049 l 0,0 z" />
  <path
     style="fill:#8f5946"
     id="path463"
     d="m 49.922,64.422 c 1.229,-0.359 2.475,-0.271 3.755,-0.099 2.345,0.302 4.761,-0.776 6.22,-2.609 0.025,-0.026 0.025,-0.073 0,-0.104 -0.031,-0.025 -0.078,-0.025 -0.104,0 -1.292,1.506 -3.183,2.276 -5.108,2.562 -1.604,-0.068 -3.214,-0.365 -4.776,0.156 l 0,0 c -0.026,0 -0.047,0.025 -0.042,0.057 0.003,0.027 0.029,0.043 0.055,0.037 l 0,0 z" />
  <path
     style="fill:#8f5946"
     id="path465"
     d="m 44.995,71.011 c 1.989,0.052 3.906,0.604 5.767,1.323 2.525,0.979 4.646,2.547 7.052,3.833 2.886,1.537 6.344,1.615 9.312,0.281 3.422,-1.536 5.333,-4.656 8.151,-7.048 0.552,-0.474 1.13,-0.792 1.729,-1.233 0.13,-0.094 0.297,-0.109 0.433,-0.208 0.75,-0.552 1.542,-0.87 2.391,-1.12 1.24,-0.365 2.479,-0.5 3.62,-1.177 1.703,-1.017 3.463,-1.573 5.354,-1.865 3.767,-1.151 7.683,-1.641 11.271,-3.484 0.307,-0.155 0.641,-0.271 0.911,-0.489 0.108,-0.058 0.15,-0.198 0.094,-0.308 -0.062,-0.108 -0.198,-0.15 -0.307,-0.088 -2.047,1.135 -4.193,1.901 -6.526,2.458 -2.792,0.667 -5.297,1.38 -8.089,2.042 -1.63,0.39 -2.87,1.458 -4.432,1.979 -0.683,0.224 -1.396,0.219 -2.073,0.458 -1.047,0.369 -1.974,0.854 -2.943,1.452 -2.141,1.323 -3.698,3.031 -5.354,4.887 -1.839,2.062 -4.083,3.547 -6.85,4.072 -1.03,0.198 -2.01,0.188 -3.025,0.068 -3.637,-0.422 -6.287,-3.094 -9.553,-4.474 -2.202,-0.928 -4.542,-1.479 -6.932,-1.463 -0.025,0 -0.047,0.025 -0.047,0.052 -10e-4,0.026 0.02,0.052 0.046,0.052 l 0,0 z" />
  <path
     style="fill:#8f5946"
     id="path467"
     d="m 28.183,66.995 c 0.911,0.729 1.53,1.646 2.229,2.646 1.385,1.984 3.094,3.453 5.172,4.531 1.875,0.974 3.979,0.724 6.005,0.802 1.183,0.047 2.328,0.156 3.531,0.412 2.375,0.505 4.625,0.766 6.786,1.708 0.031,0.016 0.068,0 0.078,-0.031 0.011,-0.03 -0.005,-0.067 -0.036,-0.078 -1.214,-0.505 -2.365,-1.219 -3.703,-1.322 -1.844,-0.579 -3.729,-0.912 -5.667,-1.095 -2.566,-0.244 -5.245,0.412 -7.573,-1.238 -2.067,-1.463 -3.662,-2.995 -5.172,-5.017 -0.442,-0.583 -1.052,-0.933 -1.588,-1.391 -0.021,-0.021 -0.052,-0.016 -0.068,0.005 -0.021,0.021 -0.015,0.052 0.006,0.068 l 0,0 z" />
  <path
     style="fill:#8f5946"
     id="path469"
     d="m 34.719,73.417 c 0.505,0.365 0.974,0.761 1.525,1.078 1.354,0.775 2.892,0.733 4.328,1.229 1.75,0.609 3.411,1.287 5.088,2.079 2.099,0.989 4.281,1.677 6.271,2.843 2.229,0.833 4.244,2.083 6.682,2.521 0.708,0.125 1.396,-0.058 2.01,-0.392 0.115,-0.057 0.156,-0.202 0.094,-0.312 -0.057,-0.115 -0.202,-0.156 -0.312,-0.099 -0.698,0.427 -1.557,0.474 -2.317,0.233 -4.297,-1.349 -8.067,-3.625 -12.219,-5.177 -1.641,-0.896 -3.37,-1.547 -5.162,-2.135 -2,-0.657 -4.203,-0.708 -5.938,-1.954 -0.021,-0.017 -0.053,-0.01 -0.068,0.016 -0.013,0.023 -0.003,0.054 0.018,0.07 l 0,0 z" />
  <path
     style="fill:#8f5946"
     id="path471"
     d="m 58.662,89.928 c -0.005,-1.25 0.146,-2.094 0.281,-3.344 0.177,-1.583 1.188,-2.786 2.016,-4.109 1.609,-1.708 3.225,-3.411 5,-4.948 2.5,-1.625 4.656,-3.594 6.776,-5.775 1.63,-1.672 3.333,-3.088 5.37,-4.287 2.275,-1.338 4.729,-1.891 7.062,-2.953 0.058,-0.031 0.083,-0.099 0.058,-0.156 -0.026,-0.057 -0.095,-0.083 -0.151,-0.057 -1.099,0.448 -2.156,0.958 -3.308,1.307 -1.364,0.412 -2.683,0.684 -3.928,1.453 -2.021,1.245 -3.703,2.63 -5.349,4.276 -1.359,1.354 -2.599,2.646 -4.099,3.865 -1.192,0.974 -2.47,1.635 -3.567,2.697 -1.526,1.484 -3.037,2.755 -4.328,4.5 -0.969,1.297 -1.464,2.792 -1.562,4.35 -0.083,1.26 -0.448,2.479 -0.345,3.745 0,0.025 -0.016,-1.75 0.011,-1.75 0.025,0 0.344,-2.131 0.344,-2.157 l -0.281,3.343 z" />
  <path
     style="fill:#8f5946"
     id="path473"
     d="m 36.417,55.401 c -0.49,1.803 -0.089,3.745 1.1,5.22 1.78,2.197 4.266,3.489 5.771,5.854 0.017,0.026 0.047,0.037 0.073,0.021 0.026,-0.017 0.031,-0.053 0.016,-0.078 -0.604,-0.85 -1.025,-1.792 -1.738,-2.583 -1.203,-1.338 -2.781,-2.036 -3.84,-3.583 -1,-1.475 -1.667,-3.115 -1.285,-4.833 0.005,-0.026 -0.012,-0.052 -0.037,-0.058 -0.034,-0.007 -0.06,0.014 -0.06,0.04 l 0,0 z" />
  <path
     style="fill:#8f5946"
     id="path475"
     d="m 37,59.428 c 0.345,0.703 0.684,1.427 1.387,1.859 0.858,0.525 1.905,0.396 2.744,-0.146 1.625,-1.047 2.22,-2.896 3.881,-3.817 1.938,-1.073 4.066,-0.553 6.16,-0.808 1.526,-0.188 2.479,-1.438 3.262,-2.625 0.021,-0.031 0.016,-0.073 -0.017,-0.094 -0.03,-0.026 -0.072,-0.016 -0.094,0.016 -0.938,1.245 -2.234,2.323 -3.865,2.328 -1.922,0.005 -3.927,-0.167 -5.698,0.792 -1.447,0.781 -2.13,2.267 -3.302,3.375 -0.656,0.62 -1.463,1 -2.375,0.865 -0.969,-0.141 -1.594,-0.974 -1.99,-1.787 l 0,0 C 37.077,59.365 37.051,59.35 37.027,59.365 37,59.375 36.99,59.407 37,59.428 l 0,0 z" />
  <path
     style="fill:#8f5946"
     id="path477"
     d="m 25.162,42.714 c 0.058,0.469 0.021,0.953 -0.125,1.375 -1.083,3.162 -2.108,6.312 -1.755,9.677 0.375,3.583 3.787,5.719 7.011,6.438 0.053,0.021 0.104,-0.012 0.12,-0.059 0.021,-0.052 -0.01,-0.104 -0.057,-0.125 -2.167,-0.921 -4.526,-1.775 -5.859,-3.941 -0.99,-1.604 -0.912,-3.365 -0.797,-5.109 0.141,-2.115 0.859,-4.083 1.516,-6.104 0.225,-0.703 0.095,-1.438 0.053,-2.162 l 0,0 c -0.005,-0.026 -0.031,-0.047 -0.058,-0.047 -0.028,0.005 -0.049,0.031 -0.049,0.057 l 0,0 z" />
  <path
     style="fill:#8f5946"
     id="path479"
     d="m 29.083,56.583 c 0.058,3.172 2.594,5.37 5.052,6.964 0.026,0.016 0.062,0.01 0.083,-0.016 0.021,-0.026 0.017,-0.068 -0.01,-0.09 -2.203,-1.78 -4.703,-3.875 -5.03,-6.875 l 0,0 c 0,-0.025 -0.026,-0.047 -0.058,-0.042 -0.026,0.008 -0.042,0.034 -0.037,0.059 l 0,0 z" />
  <path
     style="fill:#8f5946"
     id="path481"
     d="m 23.667,54.553 c 0.047,0.75 0.385,1.442 0.448,2.177 0.088,1.13 0.193,2.198 0.458,3.323 0.5,2.151 1.297,3.984 2.588,5.823 1.151,1.63 2.776,2.521 4.599,3.066 1.979,0.59 3.881,1.095 5.817,1.756 0.651,0.219 1.162,0.655 1.75,0.979 0.026,0.015 0.058,0.005 0.073,-0.021 0.016,-0.026 0.005,-0.059 -0.017,-0.068 -1.525,-1.088 -3.161,-1.906 -5.021,-2.396 -1.375,-0.358 -2.698,-0.66 -3.958,-1.28 -4.317,-2.115 -5.37,-7.178 -5.984,-11.59 -0.062,-0.457 -0.38,-0.854 -0.542,-1.307 -0.057,-0.156 -0.072,-0.323 -0.114,-0.483 -0.006,-0.026 -0.036,-0.048 -0.062,-0.042 -0.026,0.005 -0.047,0.035 -0.042,0.062 h 0.007 v 10e-4 z" />
  <path
     style="fill:#8f5946"
     id="path483"
     d="m 44.219,45.219 c -0.25,0.469 -0.438,0.963 -0.875,1.302 -1.442,1.109 -2.75,2.037 -3.786,3.589 -0.979,1.464 -1.37,3.109 -1.193,4.786 0,0.053 0.047,0.095 0.099,0.095 0.053,0 0.1,-0.042 0.1,-0.095 -0.094,-2.941 1.599,-5.578 4.083,-7.302 0.849,-0.594 1.333,-1.406 1.662,-2.328 0.016,-0.025 0.005,-0.058 -0.021,-0.067 -0.027,-0.016 -0.054,-0.006 -0.069,0.02 l 0,0 z" />
  <path
     style="fill:#8f5946"
     id="path485"
     d="m 42.599,51.011 c 0.213,-1.724 0.995,-3.344 1.547,-4.99 1.125,-1.863 2.88,-3.197 4.775,-4.316 1.548,-0.906 3.184,-1.312 4.734,-2.229 1.219,-0.714 1.917,-1.891 2.812,-2.896 0.031,-0.037 0.031,-0.083 0,-0.115 -0.03,-0.032 -0.083,-0.031 -0.113,0 -0.934,0.917 -1.745,1.938 -2.922,2.609 -1.578,0.9 -3.229,1.322 -4.787,2.255 -1.958,1.172 -3.761,2.578 -4.896,4.525 -0.531,1.688 -1.031,3.406 -1.255,5.156 0,0.026 0.026,0.047 0.052,0.047 0.027,10e-4 0.053,-0.02 0.053,-0.046 l 0,0 z" />
  <path
     style="fill:#8f5946"
     id="path487"
     d="m 40.63,42.657 c 0.521,-2.573 1.938,-4.928 4.22,-6.292 0.088,-0.078 0.094,-0.208 0.016,-0.298 -0.078,-0.083 -0.208,-0.088 -0.292,-0.01 -1.245,0.823 -2.401,1.812 -3.052,3.203 -0.51,1.078 -0.662,2.245 -0.99,3.37 -0.005,0.026 0.011,0.052 0.037,0.058 0.025,0.01 0.051,-0.005 0.061,-0.031 l 0,0 z" />
  <path
     style="fill:#8f5946"
     id="path489"
     d="m 44.177,39.865 c 0.115,-0.267 0.271,-0.517 0.323,-0.809 0.193,-1.005 0.287,-1.922 0.521,-2.906 0.317,-1.358 1.302,-2.297 2.287,-3.208 1.182,-1.083 2.661,-1.468 3.9,-2.474 0.725,-0.594 1.213,-1.328 1.896,-1.964 0.995,-0.932 2.266,-1.239 3.562,-1.562 2.51,-0.625 4.875,-1.066 7.345,-1.775 0.557,-0.162 1.099,-0.323 1.635,-0.537 0.03,-0.015 0.042,-0.052 0.03,-0.078 -0.016,-0.032 -0.047,-0.042 -0.077,-0.032 -1.453,0.547 -2.938,0.72 -4.511,1.012 -1.577,0.297 -3.016,0.588 -4.567,0.974 -1.953,0.485 -3.693,1.24 -4.953,2.953 -0.38,0.516 -0.838,0.933 -1.417,1.198 -1.979,0.927 -3.698,2.119 -4.964,4.016 -0.911,1.37 -0.75,2.953 -0.859,4.463 -0.016,0.234 -0.125,0.469 -0.245,0.682 -0.01,0.026 0,0.059 0.026,0.068 0.027,0.015 0.053,0.005 0.068,-0.021 l 0,0 z" />
  <path
     style="fill:#8f5946"
     id="path491"
     d="m 26.511,47.245 c -0.333,-0.755 -0.495,-1.531 -0.698,-2.35 -0.225,-0.911 -0.292,-1.76 -0.135,-2.682 0.302,-1.781 0.896,-3.338 1.896,-4.885 1.047,-1.625 2.328,-2.887 3.25,-4.5 0.062,-0.078 0.047,-0.193 -0.037,-0.255 -0.078,-0.058 -0.192,-0.042 -0.25,0.036 -2.208,2.881 -4.63,5.729 -5.224,9.5 -0.135,0.845 -0.067,1.631 0.094,2.49 0.188,0.984 0.677,1.781 1.011,2.677 0.005,0.026 0.036,0.037 0.062,0.031 0.025,-0.01 0.041,-0.036 0.031,-0.062 l 0,0 z" />
  <path
     style="fill:#8f5946"
     id="path493"
     d="m 33.011,42.86 c 0.547,-2.812 2.755,-4.719 4.552,-6.771 1.115,-2.068 2.4,-4.031 3.849,-5.885 2.406,-2.412 5.276,-4.303 8.188,-6.053 0.099,-0.052 0.135,-0.177 0.083,-0.275 -0.053,-0.1 -0.178,-0.135 -0.276,-0.083 -0.245,0.052 -0.453,0.172 -0.667,0.308 -2.838,1.812 -5.5,3.375 -7.693,5.892 -1.562,1.802 -2.792,3.733 -3.822,5.833 -0.845,1.099 -1.854,1.964 -2.703,3.135 -0.87,1.208 -1.302,2.5 -1.604,3.87 -0.011,0.025 0.005,0.052 0.031,0.062 0.025,0.003 0.051,-0.007 0.062,-0.033 l 0,0 z" />
  <path
     style="fill:#8f5946"
     id="path495"
     d="m 32.849,36.292 c 2.672,1.037 4.891,-1.213 6.405,-3.234 0.542,-0.724 0.984,-1.432 1.5,-2.13 0.026,-0.037 0.017,-0.083 -0.016,-0.11 -0.037,-0.021 -0.083,-0.015 -0.104,0.021 -1.261,1.464 -2.411,2.964 -3.905,4.271 -0.708,0.615 -1.484,1 -2.401,1.214 -0.495,0.114 -0.979,0.016 -1.448,-0.131 l 0,0 c -0.03,-0.005 -0.057,0.012 -0.062,0.037 -0.01,0.025 0.005,0.052 0.031,0.062 l 0,0 z" />
  <path
     style="fill:#8f5946"
     id="path497"
     d="m 41.662,64.25 c -0.646,-0.662 -1.15,-1.609 -0.844,-2.552 0.844,-0.917 1.646,-1.818 2.292,-2.938 0.198,-0.338 0.438,-0.63 0.677,-0.932 0.026,-0.026 0.021,-0.073 -0.005,-0.095 -0.026,-0.025 -0.067,-0.021 -0.094,0.006 -0.448,0.566 -0.87,1.13 -1.328,1.718 -0.469,0.615 -0.942,1.136 -1.526,1.641 -0.688,0.6 -0.588,1.583 -0.192,2.312 0.219,0.396 0.625,0.625 0.938,0.941 0.037,0.031 0.089,0.026 0.115,-0.01 0.031,-0.037 0.026,-0.089 -0.01,-0.115 l -0.023,0.024 z" />
  <path
     style="fill:#8f5946"
     id="path499"
     d="m 31.177,37.573 c -0.317,-0.448 -0.354,-0.97 -0.385,-1.495 -0.078,-1.287 0.047,-2.573 0.375,-3.818 1.755,-3.568 4.458,-6.438 7.521,-9.068 4.823,-4.135 10.281,-6.463 15.755,-9.604 0.271,-0.151 0.542,-0.338 0.766,-0.568 0.047,-0.03 0.062,-0.099 0.031,-0.146 -0.037,-0.052 -0.104,-0.062 -0.151,-0.031 -0.989,0.614 -2.058,1.036 -3.099,1.604 -3.396,1.854 -6.557,3.411 -9.875,5.63 -4.651,3.108 -8.359,6.635 -11.047,11.405 -0.892,1.595 -0.662,3.386 -0.458,5.115 0.042,0.392 0.297,0.683 0.474,1.017 0.017,0.021 0.042,0.035 0.068,0.021 0.025,-0.01 0.036,-0.041 0.025,-0.062 l 0,0 z" />
  <path
     style="fill:#8f5946"
     id="path501"
     d="m 51.917,16.823 c 1.142,-1.417 2.203,-2.808 3.755,-3.938 1.583,-1.156 3.198,-1.927 4.943,-2.63 2.74,-1.099 5.651,-1.359 8.562,-1.526 1.948,-0.108 3.818,-0.108 5.808,-0.525 1.333,-0.281 2.516,-0.505 3.849,-0.771 1.901,-0.375 3.662,-0.38 5.542,-0.037 1.146,0.208 2.203,0.333 3.328,0.63 0.469,0.125 0.974,0.225 1.448,0.073 0.12,-0.052 0.177,-0.188 0.13,-0.308 -0.052,-0.12 -0.188,-0.178 -0.307,-0.125 -0.38,0.078 -0.755,0 -1.13,-0.078 C 86.907,7.395 86.074,7.229 85.142,7.062 84.709,6.984 84.309,6.864 83.887,6.822 82.199,6.662 80.578,6.63 78.861,6.953 76.84,7.333 75.007,7.816 73.007,8.03 70.7,8.275 68.45,8.255 66.138,8.509 63.737,8.78 61.45,9.332 59.242,10.311 c -3.088,1.37 -5.713,3.531 -7.406,6.442 l 0,0 c -0.021,0.025 -0.021,0.062 0.01,0.083 0.026,0.021 0.062,0.021 0.083,-0.01 l -0.012,-0.003 z" />
  <path
     style="fill:#8f5946"
     id="path503"
     d="m 43.724,23.87 c 0.927,0.51 2.005,0.583 3.03,0.599 1.042,0.021 2.058,-0.261 3.053,-0.573 2.066,-0.65 3.422,-2.375 5.322,-3.343 2.47,-1.261 5.208,-1.391 7.845,-2.219 2.662,-0.828 4.702,-2.542 6.817,-4.343 1.411,-1.203 2.484,-2.595 3.692,-3.923 0.037,-0.035 0.037,-0.093 0,-0.135 -0.036,-0.037 -0.094,-0.037 -0.13,0 -1.512,1.1 -2.542,2.63 -4.026,3.85 -1.562,1.275 -2.979,2.547 -4.776,3.422 -3.88,1.885 -8.577,1.358 -11.922,4.479 -0.922,0.865 -1.979,1.5 -3.197,1.838 -0.892,0.245 -1.762,0.475 -2.678,0.542 -0.635,0.047 -1.255,0 -1.891,0.021 -0.38,0.011 -0.755,-0.12 -1.094,-0.302 -0.026,-0.017 -0.058,-0.006 -0.068,0.021 -0.013,0.025 -0.003,0.056 0.023,0.066 l 0,0 z" />
  <path
     style="fill:#8f5946"
     id="path505"
     d="m 73.865,9.594 c 0,0.026 0.021,0.047 0.047,0.047 0.031,0 0.052,-0.021 0.052,-0.047 l 0,0 c 0,-0.031 -0.021,-0.052 -0.052,-0.052 -0.026,0 -0.047,0.021 -0.047,0.052 l 0,0 z" />
  <path
     style="fill:#8f5946"
     id="path507"
     d="m 65.776,16.969 c 3.422,-2.537 7.775,-2.927 11.927,-3.307 1.142,-0.104 2.24,-0.396 3.261,-0.975 0.713,-0.405 1.298,-0.938 2,-1.322 C 82.99,11.348 83,11.317 82.985,11.292 82.97,11.266 82.938,11.261 82.912,11.275 79.224,14.009 74.438,12.968 70.214,14.323 68.526,14.859 67,15.687 65.72,16.885 l 0,0 c -0.021,0.016 -0.031,0.047 -0.017,0.068 0.015,0.021 0.047,0.032 0.073,0.016 l 0,0 z" />
  <path
     style="fill:#8f5946"
     id="path509"
     d="m 103.094,53.698 c -0.225,-0.818 0.177,-1.548 0.839,-2.017 1.208,-0.858 1.995,-1.896 2.905,-2.99 0.345,-0.417 0.729,-0.771 1.239,-0.932 1.901,-0.599 4.021,-0.318 5.63,-1.646 0.031,-0.017 0.042,-0.059 0.021,-0.09 -0.017,-0.03 -0.059,-0.042 -0.083,-0.021 -0.693,0.407 -1.443,0.755 -2.245,0.839 -1.005,0.109 -1.979,0.052 -2.995,0.286 -0.812,0.188 -1.442,0.651 -1.932,1.297 -1.078,1.422 -2.312,2.417 -3.375,3.838 -0.323,0.427 -0.234,0.963 -0.104,1.453 0.005,0.026 0.036,0.047 0.062,0.042 0.025,-0.005 0.047,-0.036 0.042,-0.062 l -0.004,0.003 0,0 z" />
  <path
     style="fill:#8f5946"
     id="path511"
     d="m 105.109,50.167 c 0.917,-0.625 1.442,-1.802 1.358,-2.88 -0.072,-0.928 -0.729,-1.657 -1.062,-2.517 -1.203,-3.088 0.849,-6.322 3.5,-8.167 1.188,-0.828 2.474,-1.113 3.849,-0.927 1.97,0.271 3.662,1.474 5.646,1.411 2.922,-0.088 5.677,-1.516 7.578,-3.734 0.03,-0.03 0.025,-0.088 -0.005,-0.12 -0.037,-0.03 -0.088,-0.025 -0.12,0.011 -2.178,2.01 -4.99,3.578 -8.026,3.354 -1.766,-0.125 -3.302,-1.12 -5.078,-1.329 -4.245,-0.505 -7.75,3.5 -8.12,7.475 -0.125,1.333 0.448,2.525 1.146,3.697 0.724,1.215 0.198,2.72 -0.725,3.642 l 0,0 c -0.025,0.021 -0.025,0.052 -0.01,0.073 0.018,0.02 0.049,0.027 0.069,0.011 l 0,0 z" />
  <path
     style="fill:#8f5946"
     id="path513"
     d="m 116.568,36.672 c 1.625,0.62 3.052,1.391 4.562,2.438 0.526,0.37 1.095,0.558 1.72,0.636 1,0.125 1.952,-0.125 2.942,-0.037 1.058,0.099 1.97,0.604 2.995,0.907 1.271,0.369 2.537,0.025 3.662,-0.708 1.26,-0.823 2,-2.078 2.328,-3.475 0.016,-0.047 -0.005,-0.094 -0.052,-0.108 -0.047,-0.016 -0.095,0.005 -0.109,0.052 -0.62,2.323 -3.005,4.323 -5.542,3.816 -0.995,-0.202 -1.776,-0.697 -2.776,-0.885 -1.219,-0.229 -2.338,0.151 -3.535,-0.042 -1.062,-0.172 -1.887,-0.724 -2.776,-1.358 -1.052,-0.75 -2.234,-0.953 -3.391,-1.328 l 0,0 c -0.026,-0.012 -0.053,0.005 -0.062,0.03 -0.008,0.026 0.003,0.057 0.034,0.062 l 0,0 z" />
  <path
     style="fill:#8f5946"
     id="path515"
     d="m 127.683,40.032 c 0.646,0.583 1.557,0.744 2.182,1.344 2.438,2.344 2.229,5.87 1.542,9.01 -0.422,1.917 -1.406,3.443 -2.766,4.828 -0.896,0.917 -1.208,2.188 -2.12,3.099 -1.517,1.521 -3.463,2.338 -5.287,3.354 l 0,0 c -0.026,0.016 -0.036,0.047 -0.021,0.073 0.017,0.025 0.047,0.035 0.073,0.021 2.125,-1.193 4.547,-1.911 6.125,-3.99 0.583,-0.775 0.979,-1.593 1.526,-2.354 2.28,-1.833 3.099,-4.771 3.308,-7.573 0.183,-2.443 -0.089,-5.156 -2.203,-6.797 -0.692,-0.537 -1.558,-0.662 -2.297,-1.094 -0.021,-0.017 -0.052,-0.017 -0.067,0.005 -0.022,0.021 -0.016,0.053 0.005,0.074 l 0,0 z" />
  <path
     style="fill:#8f5946"
     id="path517"
     d="m 131.662,49.954 c -0.108,1.108 -0.531,2.172 -0.453,3.297 0.026,0.38 0.287,0.688 0.62,0.896 1.287,0.809 2.74,0.865 4.167,0.762 0.047,-0.006 0.078,-0.042 0.073,-0.09 0,-0.047 -0.042,-0.077 -0.088,-0.077 -1.37,-0.026 -2.745,-0.208 -3.969,-0.943 -0.198,-0.12 -0.375,-0.297 -0.423,-0.537 -0.219,-1.135 0.104,-2.193 0.178,-3.297 0,-0.026 -0.021,-0.052 -0.047,-0.057 -0.027,-0.001 -0.053,0.02 -0.058,0.046 l 0,0 z" />
  <path
     style="fill:#8f5946"
     id="path519"
     d="m 127.339,57.735 c 0.442,-0.775 1.1,-1.358 1.886,-1.817 1.057,-0.614 2.108,-1.213 3.322,-1.328 0.115,-0.005 0.208,-0.104 0.203,-0.219 0,-0.12 -0.099,-0.208 -0.213,-0.208 -2.135,0.316 -4.307,1.536 -5.287,3.516 -0.021,0.031 -0.01,0.062 0.017,0.078 0.03,0.021 0.062,0.011 0.078,-0.015 l -0.006,-0.007 z" />
  <path
     style="fill:#8f5946"
     id="path521"
     d="m 118.662,46.526 c -0.052,0.87 -0.01,1.85 0.703,2.438 1.156,0.958 2.292,1.875 3.797,2.203 1.037,0.229 2.031,0.047 3.01,-0.219 0.048,-0.011 0.078,-0.053 0.068,-0.1 -0.01,-0.047 -0.057,-0.073 -0.104,-0.062 -1.526,0.438 -3.173,0.26 -4.47,-0.75 -0.172,-0.13 -0.333,-0.276 -0.516,-0.37 -1.25,-0.609 -2.62,-1.6 -2.386,-3.142 l 0,0 c 0,-0.03 -0.026,-0.052 -0.053,-0.052 -0.023,0.003 -0.049,0.023 -0.049,0.054 l 0,0 z" />
  <path
     style="fill:#8f5946"
     id="path523"
     d="m 93.974,62.255 c 2.233,-0.312 4.307,-1.177 6.364,-2.156 2.567,-1.219 5.317,-1.683 7.984,-2.63 1.516,-0.542 2.875,-1.359 4.417,-1.849 2.208,-0.703 4.375,-1.359 6.172,-2.922 1.245,-1.078 1.458,-2.906 0.583,-4.245 -0.042,-0.115 -0.177,-0.178 -0.292,-0.13 -0.12,0.042 -0.182,0.177 -0.135,0.297 0.505,0.87 0.755,1.938 0.193,2.838 -1.684,2.683 -4.923,2.979 -7.578,4.052 -1.75,0.708 -3.333,1.615 -5.215,2.083 -2.219,0.547 -4.292,1.135 -6.327,2.083 -2.031,0.948 -3.979,2.067 -6.188,2.484 l 0,0 c -0.026,0 -0.042,0.025 -0.036,0.057 0.001,0.028 0.027,0.044 0.058,0.038 l 0,0 z" />
  <path
     style="fill:#8f5946"
     id="path525"
     d="m 118.953,52.37 c 0.484,-0.49 0.656,-1.188 1.188,-1.62 0.511,-0.417 1.312,-0.229 1.917,-0.037 0.094,0.042 0.208,-0.005 0.245,-0.099 0.042,-0.1 -0.006,-0.208 -0.1,-0.25 -0.786,-0.298 -1.953,-0.412 -2.448,0.396 -0.317,0.526 -0.505,1.078 -0.88,1.552 -0.016,0.021 -0.016,0.053 0.012,0.067 0.019,0.017 0.051,0.017 0.066,-0.009 l 0,0 z" />
  <path
     style="fill:#8f5946"
     id="path527"
     d="m 119.542,51.151 c 0.312,-0.375 0.317,-0.875 0.531,-1.292 l 0.016,-0.108 -0.03,0.078 0.036,-0.042 c 0.016,-0.017 0.021,-0.026 0.025,-0.042 l 0.088,-0.13 -0.177,0.083 0.073,0.021 -0.021,-0.011 0.13,0.062 -0.062,-0.062 0.062,0.13 -0.011,-0.088 -0.021,0.115 c -0.026,0.093 -0.059,0.182 -0.083,0.275 l -0.053,0.062 c -0.021,0.03 -0.025,0.062 -0.025,0.094 l 0.005,0.068 c 0.005,0.052 0.036,0.104 0.088,0.125 l 0.016,0.005 c 0.042,0.021 0.088,0.016 0.125,-0.005 l 0.109,-0.059 c 0.021,-0.016 0.042,-0.031 0.052,-0.057 l 0.058,-0.094 c 0.01,-0.017 0.016,-0.031 0.021,-0.048 l 0.01,-0.062 c 0.011,-0.042 0,-0.078 -0.021,-0.109 l -0.021,-0.042 c -0.025,-0.042 -0.072,-0.066 -0.12,-0.066 h -0.177 c -0.219,0.016 -0.349,0.219 -0.438,0.396 v 0.135 c 0.005,0.062 0.057,0.109 0.113,0.12 l 0.095,0.017 c 0.037,0.005 0.072,0 0.099,-0.021 l 0.104,-0.073 c 0.059,-0.067 0.109,-0.141 0.156,-0.219 l 0.089,-0.167 c 0.017,-0.031 0.021,-0.062 0.017,-0.099 l -0.031,-0.114 c -0.037,-0.104 -0.12,-0.172 -0.193,-0.25 l -0.245,-0.157 c -0.016,-0.005 -0.025,-0.01 -0.042,-0.01 -0.083,-0.016 -0.16,0.042 -0.177,0.125 l -0.011,0.104 c 0.026,0.146 0.12,0.25 0.224,0.343 l 0.22,0.079 c 0.047,0.01 0.099,0 0.135,-0.037 l 0.141,-0.151 c 0.078,-0.157 0.037,-0.339 -0.066,-0.525 l -0.198,-0.203 c -0.031,-0.042 -0.083,-0.062 -0.135,-0.062 l -0.042,0.005 c -0.021,0 -0.042,0.005 -0.062,0.017 -0.078,0.042 -0.104,0.135 -0.067,0.208 l 0.025,0.046 c 0.193,0.458 0.62,0.75 1.109,0.812 0.083,0.026 0.167,-0.021 0.188,-0.099 0.021,-0.078 -0.021,-0.162 -0.104,-0.188 -0.302,-0.078 -0.594,-0.182 -0.833,-0.422 -0.031,-0.037 -0.161,0.026 -0.255,0.052 l 0.146,-0.344 -0.13,0.225 h 0.042 l -0.099,-0.026 0.146,0.13 c 0,-0.005 -0.005,-0.011 -0.005,-0.016 0.042,0.052 0.089,0.104 0.13,0.156 l -0.13,0.178 0.141,-0.037 -0.191,-0.088 c 0.078,0.155 -0.083,0.12 -0.136,0.172 l 0.125,-0.276 -0.239,0.1 0.203,0.119 c -0.005,-0.005 -0.017,-0.011 -0.021,-0.016 l 0.151,0.213 0.016,-0.094 -0.135,0.245 c 0.005,-0.005 0.01,-0.005 0.016,-0.01 l -0.12,0.114 0.1,-0.021 -0.094,-0.017 0.119,0.12 0.067,-0.155 0.005,0.005 0.245,-0.042 -0.12,-0.068 0.031,0.042 -0.021,-0.109 -0.01,0.067 0.017,-0.042 -0.053,0.094 0.053,-0.052 -0.104,0.058 0.125,-0.005 -0.016,-0.01 0.088,0.125 -0.005,-0.068 -0.026,0.095 0.12,-0.245 c 0,-0.005 0.005,-0.016 0.005,-0.021 l 0.073,-0.312 c 0.005,-0.031 0,-0.062 -0.017,-0.094 l -0.066,-0.125 c -0.017,-0.026 -0.042,-0.053 -0.068,-0.062 l -0.13,-0.062 c -0.005,0 -0.016,-0.005 -0.021,-0.005 l -0.068,-0.026 c -0.057,-0.017 -0.115,0.005 -0.151,0.047 l -0.083,0.13 0,0 -0.037,0.042 c -0.021,0.021 -0.03,0.047 -0.035,0.078 l -0.037,0.151 c -0.12,0.405 -0.13,0.838 -0.318,1.229 l 0,0 c -0.016,0.026 -0.005,0.057 0.021,0.067 0.015,0.015 0.046,0.004 0.062,-0.017 l 0,0 z" />
  <path
     style="fill:#8f5946"
     id="path529"
     d="m 111.24,24.833 c 1.828,-0.911 3.891,-1.156 5.922,-0.892 1.271,0.167 2.469,0.495 3.74,0.62 1.625,0.162 3.219,0.167 4.849,0.312 3.245,0.292 5.573,2.505 7.953,4.566 1.359,1.172 2.583,2.255 4.021,3.36 1.739,1.333 3.713,2.01 5.052,3.817 1.5,2.021 2.135,4.167 3.608,6.229 1.095,1.521 2.692,2.141 3.928,3.421 0.391,0.407 0.833,0.776 0.953,1.35 0.297,1.458 -0.188,2.755 -0.548,4.104 l 0,0 c -0.021,0.088 0.043,0.177 0.131,0.192 0.094,0.016 0.177,-0.042 0.197,-0.136 0.595,-1.369 0.922,-2.854 0.678,-4.354 -0.656,-1.401 -1.892,-2.25 -3.198,-3.141 -0.434,-0.298 -0.771,-0.609 -1.12,-0.979 -2.344,-2.495 -2.911,-6.037 -5.469,-8.26 -1.989,-1.365 -4.058,-2.51 -5.892,-4.172 -1.947,-1.771 -3.738,-3.338 -5.953,-4.892 -1.167,-0.812 -2.369,-1.25 -3.738,-1.479 -1.776,-0.297 -3.484,-0.239 -5.245,-0.391 -1.942,-0.167 -3.808,-0.761 -5.76,-0.646 -1.458,0.088 -2.912,0.489 -4.162,1.276 l 0,0 c -0.026,0.016 -0.031,0.047 -0.021,0.072 0.017,0.026 0.047,0.032 0.073,0.021 l 10e-4,0.002 0,0 z" />
  <path
     style="fill:#8f5946"
     id="path531"
     d="m 117.167,17.032 c 0.303,0.26 0.583,0.521 0.896,0.775 1.125,0.917 2.453,1.318 3.505,2.318 1.271,1.198 2.302,2.463 3.693,3.562 1.099,0.865 2.146,1.803 3.521,2.042 0.089,0.017 0.172,-0.042 0.188,-0.13 0.016,-0.089 -0.042,-0.177 -0.131,-0.192 -3.067,-1.162 -4.933,-3.875 -7.483,-5.943 -0.984,-0.797 -2.115,-1.099 -3.184,-1.776 -0.344,-0.219 -0.641,-0.474 -0.941,-0.733 -0.021,-0.017 -0.052,-0.017 -0.073,0.005 -0.017,0.019 -0.012,0.051 0.009,0.072 l 0,0 z" />
  <path
     style="fill:#8f5946"
     id="path533"
     d="m 132.62,31.354 c 1.526,2.458 4.526,2.901 7.067,3.803 0.854,0.302 1.63,0.692 2.386,1.26 1.297,0.979 1.938,2.38 2.828,3.636 0.031,0.052 0.104,0.073 0.156,0.036 0.057,-0.031 0.072,-0.104 0.042,-0.156 -0.803,-1.828 -1.953,-3.552 -3.787,-4.531 -2.854,-1.53 -6.604,-1.317 -8.609,-4.104 l 0,0 c -0.016,-0.021 -0.042,-0.031 -0.066,-0.016 -0.022,0.015 -0.033,0.047 -0.017,0.072 l 0,0 z" />
  <path
     style="fill:#8f5946"
     id="path535"
     d="m 141.375,47.725 c 1.809,1.688 1.99,4.35 1.781,6.677 0.302,2.375 2.552,3.953 4.672,4.678 0.042,0.016 0.083,-0.012 0.099,-0.053 0.017,-0.041 -0.005,-0.083 -0.047,-0.099 -1.713,-0.562 -3.067,-1.88 -3.953,-3.448 -0.4,-0.713 -0.358,-1.552 -0.275,-2.391 0.198,-2.062 -0.63,-4.083 -2.198,-5.427 -0.021,-0.021 -0.052,-0.026 -0.073,-0.012 -0.022,0.022 -0.022,0.054 -0.006,0.075 l 0,0 z" />
  <path
     style="fill:#8f5946"
     id="path537"
     d="m 135.188,18.75 c 0.183,0.287 0.479,0.432 0.771,0.483 5.047,0.928 9.281,3.833 11.776,8.24 0.615,1.088 1.083,2.267 1.062,3.5 -0.016,0.808 -0.26,1.593 -0.37,2.396 l 0,0 c -0.01,0.072 0.037,0.146 0.115,0.155 0.073,0.017 0.146,-0.035 0.156,-0.108 0.192,-1.177 0.781,-2.292 0.474,-3.537 -0.708,-2.875 -2.432,-5.125 -4.63,-7.01 -1.802,-1.537 -3.755,-2.72 -5.979,-3.463 -0.938,-0.312 -1.875,-0.392 -2.864,-0.604 -0.156,-0.037 -0.292,-0.11 -0.427,-0.188 -0.052,-0.032 -0.12,-0.017 -0.151,0.035 -0.031,0.053 -0.016,0.12 0.036,0.151 l 0.031,-0.05 z" />
  <path
     style="fill:#8f5946"
     id="path539"
     d="m 148.245,28.678 c 0.267,1.422 1.521,2.156 2.692,2.922 2.292,1.505 3.483,3.62 5.072,5.786 1.725,2.354 2.828,4.844 3.375,7.589 0.067,1.692 0.438,3.479 -0.183,5.1 -0.01,0.03 0.005,0.062 0.037,0.072 0.031,0.012 0.062,-0.005 0.073,-0.036 1.578,-4.108 0.062,-8.474 -2.35,-12.141 -1.099,-1.672 -2.162,-3.078 -3.396,-4.62 -1.328,-1.657 -3.146,-2.479 -4.708,-3.854 -0.245,-0.22 -0.38,-0.542 -0.51,-0.854 l 0,0 c -0.011,-0.025 -0.042,-0.042 -0.068,-0.031 -0.029,0.009 -0.039,0.035 -0.034,0.067 l 0,0 z" />
  <path
     style="fill:#8f5946"
     id="path541"
     d="m 151.25,47.1 c 0.115,1.375 1.479,1.906 2.302,2.823 0.683,0.755 0.984,1.74 1.323,2.693 0.625,1.78 0.234,3.599 -0.13,5.369 -0.578,1.292 -1.052,2.562 -1.912,3.792 -0.917,1.312 -2.115,2.22 -3.521,2.767 -1.745,0.682 -3.692,1.042 -4.922,2.573 l 0,0 c -0.021,0.021 -0.021,0.057 0,0.077 0.021,0.026 0.058,0.026 0.083,0 0.619,-0.729 1.391,-1.302 2.297,-1.583 1.192,-0.364 2.405,-0.53 3.521,-1.062 1.458,-0.688 2.642,-1.812 3.417,-3.271 0.562,-1.057 1.135,-2.057 1.448,-3.213 0.266,-0.958 0.469,-1.905 0.526,-2.885 0.104,-1.88 -0.573,-3.61 -1.495,-5.255 -0.417,-0.74 -1.213,-1.021 -1.812,-1.583 -0.411,-0.385 -0.613,-0.911 -1.031,-1.286 l 0,0 c -0.01,-0.025 -0.042,-0.037 -0.066,-0.025 -0.033,0.006 -0.044,0.042 -0.028,0.069 l 0,0 z" />
  <path
     style="fill:#8f5946"
     id="path543"
     d="m 103.323,74.089 c 0.385,-0.151 0.672,-0.463 1.099,-0.521 0.448,-0.057 0.887,-0.025 1.328,-0.066 1.755,-0.162 3.042,-1.422 4.615,-2.068 1.427,-0.588 2.969,-0.542 4.516,-0.75 2.188,-0.297 4.095,-1.302 6.095,-2.141 2.422,-1.005 4.983,-1.453 7.38,-2.531 1.516,-0.682 2.775,-1.729 3.953,-2.938 0.816,-0.833 1.432,-1.756 2.28,-2.562 0.192,-0.182 0.442,-0.26 0.683,-0.307 3.104,-0.559 6.495,-1.517 7.733,-4.6 0.303,-0.755 0.443,-1.572 0.484,-2.396 0.005,-0.046 -0.021,-0.083 -0.068,-0.088 -0.042,-0.005 -0.083,0.021 -0.088,0.067 -0.057,1.088 -0.573,2.021 -1.141,2.958 -1.51,2.512 -4.333,3.042 -7.047,3.609 -0.542,0.11 -0.979,0.396 -1.328,0.839 -1.583,2.036 -3.318,3.755 -5.51,4.974 -2.345,0.912 -4.787,1.475 -7.142,2.401 -1.412,0.552 -2.745,1.198 -4.167,1.719 -1.328,0.484 -2.713,0.62 -4.114,0.74 -0.849,0.073 -1.677,0.192 -2.489,0.474 -1.095,0.37 -1.938,1.146 -2.979,1.62 -0.787,0.354 -1.615,0.553 -2.479,0.578 -0.661,0.021 -1.178,0.475 -1.688,0.865 l 0,0 c -0.042,0.026 -0.057,0.083 -0.031,0.125 0.026,0.042 0.083,0.057 0.125,0.031 l -0.02,-0.032 z" />
  <path
     style="fill:#8f5946"
     id="path545"
     d="m 100.005,84.068 c 1.276,-1.896 3.068,-3.26 5.078,-4.447 2.083,-1.24 4.308,-0.892 6.588,-0.442 1.887,0.37 3.693,0.078 5.521,-0.198 0.037,-0.005 0.062,-0.037 0.057,-0.072 -0.005,-0.037 -0.036,-0.062 -0.073,-0.062 -2.827,0.438 -5.646,-0.125 -8.427,-0.62 -3.75,0.037 -6.917,2.755 -8.828,5.792 l 0,0 c -0.016,0.021 -0.01,0.052 0.017,0.067 0.02,0.013 0.052,0.008 0.067,-0.018 l 0,0 z" />
  <path
     style="fill:#8f5946"
     id="path547"
     d="m 106.172,78.928 c 1.021,-0.11 2.193,-0.094 2.865,-1.005 0.725,-0.984 0.651,-2.208 1.156,-3.271 0.766,-1.625 1.838,-3.197 3.5,-3.988 -0.01,0.01 -0.017,0.016 -0.026,0.025 0.104,-0.03 0.167,-0.141 0.135,-0.245 -0.025,-0.104 -0.135,-0.167 -0.239,-0.135 -1.578,0.463 -2.521,1.958 -3.38,3.328 -0.609,0.969 -0.859,1.974 -1.09,3.099 -0.28,1.401 -1.719,1.892 -2.938,2.089 -0.026,0.005 -0.047,0.03 -0.042,0.057 0.007,0.03 0.028,0.046 0.059,0.046 l 0,0 z" />
  <path
     style="fill:#8f5946"
     id="path549"
     d="m 120.349,72.162 c 1.713,1.833 4.188,2.349 6.614,2.667 2.698,0.354 5.303,0.066 7.958,0.037 1.443,-0.021 2.684,0.697 3.958,1.265 0.115,0.058 0.25,0.011 0.308,-0.099 0.058,-0.115 0.016,-0.25 -0.1,-0.309 -0.802,-0.354 -1.552,-0.807 -2.405,-1.052 -2.458,-0.698 -4.917,0.026 -7.396,-0.125 -1.51,-0.089 -2.948,-0.26 -4.474,-0.542 -1.625,-0.302 -3.188,-0.817 -4.401,-1.917 -0.021,-0.021 -0.052,-0.016 -0.068,0.005 -0.02,0.023 -0.015,0.054 0.006,0.07 l 0,0 z" />
  <path
     style="fill:#8f5946"
     id="path551"
     d="m 134.75,70.339 c 0.63,2.49 2.062,4.995 4.552,5.953 1.458,0.562 2.901,1.025 4.484,1.287 1.927,0.312 3.766,0.094 5.672,0.302 1.51,0.162 2.975,0.547 4.484,0.349 2.213,-0.297 4.224,-1.328 5.729,-3.021 1.303,-1.468 2.484,-2.911 3.267,-4.692 0.849,-1.933 1.614,-3.891 1.969,-5.969 0.011,-0.031 -0.01,-0.068 -0.042,-0.073 -0.037,-0.01 -0.068,0.011 -0.078,0.042 -0.349,2.067 -1.359,3.88 -2.245,5.771 -0.833,1.78 -1.974,3.275 -3.328,4.708 -1.572,1.672 -3.739,2.802 -6,2.802 -1.63,0 -3.239,-0.396 -4.87,-0.464 -1.494,-0.058 -2.952,0.005 -4.463,-0.213 -1.53,-0.225 -2.912,-0.725 -4.344,-1.225 -0.901,-0.312 -1.646,-0.905 -2.302,-1.613 -0.896,-0.965 -1.489,-2.042 -2.167,-3.178 -0.146,-0.238 -0.142,-0.525 -0.225,-0.792 l 0,0 c -0.005,-0.025 -0.03,-0.042 -0.057,-0.037 -0.031,0.006 -0.046,0.037 -0.036,0.063 l 0,0 z" />
  <path
     style="fill:#8f5946"
     id="path553"
     d="m 160.995,63.532 c 0.017,0.994 0.495,1.844 0.823,2.771 0.354,1.01 0.469,2.078 0.412,3.146 -0.052,0.905 -0.417,1.744 -0.568,2.63 -0.01,0.099 0.058,0.191 0.156,0.203 0.099,0.01 0.193,-0.059 0.203,-0.156 0.031,-0.338 0.213,-0.625 0.317,-0.943 0.698,-2.167 0.392,-4.5 -0.947,-6.49 -0.229,-0.338 -0.271,-0.76 -0.292,-1.172 l 0,0 c -0.006,-0.03 -0.031,-0.047 -0.058,-0.047 -0.025,0.005 -0.046,0.031 -0.046,0.058 l 0,0 z" />
  <path
     style="fill:#8f5946"
     id="path555"
     d="m 154.005,60.016 c -0.802,1.479 -2.302,3 -1.547,4.802 0.359,0.865 1.078,1.475 1.505,2.303 0.85,1.635 0.892,3.572 0.25,5.266 -0.011,0.031 0.005,0.068 0.036,0.078 0.031,0.01 0.062,-0.005 0.073,-0.036 0.614,-1.657 0.953,-3.547 0.167,-5.224 -0.417,-0.887 -1.13,-1.542 -1.562,-2.406 -0.828,-1.672 0.432,-3.266 1.161,-4.729 0.017,-0.025 0.006,-0.057 -0.016,-0.066 -0.025,-0.019 -0.056,-0.009 -0.067,0.012 l 0,0 z" />
  <path
     style="fill:#8f5946"
     id="path557"
     d="m 147.844,65.172 c 1.323,-0.344 2.651,-0.927 4.078,-0.656 0.276,0.052 0.512,0.198 0.667,0.433 0.588,0.88 1.104,1.688 1.729,2.479 0.026,0.036 0.083,0.046 0.12,0.015 0.042,-0.025 0.047,-0.077 0.021,-0.119 -0.875,-1.036 -0.938,-2.828 -2.422,-3.214 -1.188,-0.307 -2.292,0.303 -3.406,0.693 -0.271,0.093 -0.525,0.234 -0.817,0.276 l 0,0 c -0.026,0.005 -0.036,0.037 -0.031,0.062 0.009,0.026 0.035,0.042 0.061,0.031 l 0,0 z" />
  <path
     style="fill:#8f5946"
     id="path559"
     d="m 111.234,84.005 c 1.875,-0.927 3.99,-1.343 6.089,-1.067 2.229,0.292 4.276,1.095 6.5,1.292 3.62,0.318 7.161,0.255 10.786,0.672 4.844,0.553 9.505,1.537 14.058,3.131 3.719,0.729 7.25,2.447 11.062,2.53 1.213,0.031 2.438,-0.167 3.562,-0.708 1.583,-0.766 2.692,-2.066 3.62,-3.583 0.568,-0.927 0.912,-1.911 1.109,-2.953 0.021,-0.108 -0.053,-0.213 -0.162,-0.233 -0.114,-0.021 -0.219,0.052 -0.239,0.162 -0.646,2.604 -2.219,5.114 -4.719,6.25 -2.017,0.912 -4.208,0.739 -6.354,0.177 -1.672,-0.432 -3.182,-0.953 -4.87,-1.354 -3.792,-0.905 -7.099,-2.28 -10.938,-2.917 -2.094,-0.344 -4.037,-0.802 -6.115,-1 -1.594,-0.15 -3.156,-0.208 -4.745,-0.317 -2.463,-0.161 -4.849,-0.052 -7.354,-0.51 -1.828,-0.328 -3.49,-0.87 -5.297,-1.011 -2.089,-0.172 -4.162,0.448 -6.037,1.35 -0.026,0.016 -0.037,0.046 -0.026,0.066 0.019,0.023 0.05,0.034 0.07,0.023 l 0,0 z" />
  <path
     style="fill:#8f5946"
     id="path561"
     d="m 150.047,84.792 c 1.245,0.422 2.512,0.891 3.85,0.787 1.155,-0.095 2.307,-0.125 3.391,-0.62 1.505,-0.692 2.651,-1.739 4.031,-2.729 0.557,-0.4 0.88,-0.963 1.344,-1.427 0.031,-0.032 0.031,-0.089 0,-0.12 -0.037,-0.031 -0.088,-0.031 -0.12,0 -0.53,0.463 -0.9,1.059 -1.525,1.448 -1.245,0.776 -2.312,1.594 -3.595,2.24 -0.604,0.308 -1.224,0.51 -1.9,0.604 -1.844,0.261 -3.703,0.354 -5.443,-0.281 -0.025,-0.005 -0.052,0.006 -0.062,0.031 -0.013,0.025 0.003,0.057 0.029,0.067 l 0,0 z" />
  <path
     style="fill:#8f5946"
     id="path563"
     d="m 125.234,91.886 c 1.375,-0.688 2.63,-1.516 4.219,-1.838 1.052,-0.214 1.984,-0.495 3.021,-0.63 2.083,-0.267 4.135,-0.475 6.03,-1.359 0.037,-0.01 0.058,-0.052 0.042,-0.094 -0.01,-0.036 -0.057,-0.057 -0.094,-0.042 -2.073,0.854 -4.271,0.646 -6.51,1.125 -1.276,0.276 -2.432,0.583 -3.615,1.042 -1.135,0.432 -2.057,1.193 -3.135,1.708 l 0,0 c -0.026,0.01 -0.037,0.042 -0.026,0.068 0.017,0.025 0.048,0.035 0.068,0.02 l 0,0 z" />
  <path
     style="fill:#8f5946"
     id="path565"
     d="m 83.974,87.308 c 1.822,-0.354 3.792,-0.125 5.5,0.635 1.594,0.715 2.974,1.75 4.572,2.458 2.448,1.083 5.059,1.667 7.725,1.428 3.067,-0.276 6,-1.026 8.745,-2.521 2.099,-1.146 4.224,-1.938 6.386,-2.87 2.239,-0.964 4.542,-1.224 6.969,-1.641 1.833,-0.318 3.583,-0.151 5.37,-0.406 0.057,0 0.099,-0.047 0.099,-0.099 0,-0.052 -0.042,-0.1 -0.099,-0.1 -1.375,-0.15 -2.755,-0.108 -4.13,0 -1.724,0.137 -3.354,0.428 -5.094,0.809 -2.761,0.608 -5.142,1.76 -7.646,2.823 -4.495,2.562 -9.65,4.405 -15.031,3.202 -1.667,-0.369 -3.104,-1.01 -4.583,-1.797 -1.463,-0.78 -2.697,-1.797 -4.38,-2.155 -1.51,-0.328 -2.979,-0.25 -4.422,0.135 l 0,0 c -0.031,0.011 -0.047,0.037 -0.036,0.062 0.003,0.026 0.029,0.042 0.055,0.037 l 0,0 z" />
  <path
     style="fill:#8f5946"
     id="path567"
     d="m 77.058,94.454 c 4.745,1.844 9.411,-1.115 13.688,-2.875 1.411,-0.323 2.85,-0.396 4.292,-0.267 1.308,0.115 2.558,0.406 3.865,0.547 1.385,0.151 2.755,-0.036 4.114,-0.297 0.042,0 0.078,-0.042 0.072,-0.089 -0.005,-0.042 -0.042,-0.078 -0.089,-0.073 -1.333,0.167 -2.65,0.256 -4.005,0.048 -1.349,-0.203 -2.62,-0.511 -3.953,-0.609 -2.047,-0.146 -4.136,-0.083 -6.011,0.932 -2.01,1.095 -4,1.87 -6.203,2.464 -1.88,0.5 -3.885,0.756 -5.724,0.131 -0.026,-0.017 -0.059,-0.006 -0.068,0.021 -0.015,0.025 -0.005,0.056 0.022,0.067 l 0,0 z" />
  <path
     style="fill:#8f5946"
     id="path569"
     d="m 107.391,99.839 c 3.229,-0.891 6.375,-1.833 9.646,-2.792 1.984,-0.583 3.948,-0.812 5.943,-1.385 1.469,-0.422 2.828,-0.943 4.042,-1.901 1.525,-1.208 2.812,-2.375 4.469,-3.412 1.37,-0.849 2.833,-1.182 4.338,-1.51 0.052,-0.01 0.089,-0.068 0.073,-0.12 -0.011,-0.052 -0.062,-0.083 -0.115,-0.073 -1.552,0.35 -3.177,0.387 -4.594,1.37 -0.797,0.552 -1.583,0.922 -2.276,1.562 -0.698,0.646 -1.365,1.208 -2.141,1.78 -2.984,2.203 -6.505,2.428 -9.886,3.198 -3.183,1.052 -6.428,1.901 -9.521,3.188 -0.026,0.005 -0.042,0.03 -0.037,0.058 0.007,0.027 0.033,0.042 0.059,0.037 l 0,0 z" />
  <path
     style="fill:#8f5946"
     id="path571"
     d="m 78.151,77.005 c 1.042,-0.442 2.016,-0.901 3.177,-1.14 0.934,-0.193 1.797,-0.042 2.698,-0.017 1.427,0.042 2.594,-1.066 2.838,-2.469 0.193,-1.104 0.088,-2.177 -0.219,-3.224 l 0,0 c -0.011,-0.042 -0.053,-0.073 -0.095,-0.062 -0.042,0.01 -0.067,0.047 -0.062,0.094 0.359,1.642 0.312,3.646 -1.156,4.786 -0.963,0.75 -2.156,0.255 -3.25,0.333 -1.479,0.109 -2.729,0.896 -3.974,1.6 -0.031,0.01 -0.042,0.047 -0.031,0.072 0.011,0.031 0.047,0.042 0.073,0.031 v -0.004 z" />
  <path
     style="fill:#8f5946"
     id="path573"
     d="m 85.177,75.24 c 0.458,1.552 1.678,2.858 3.328,3.066 2.547,0.323 4.838,-0.849 7.078,-1.891 0.22,-0.1 0.448,-0.146 0.683,-0.198 2.317,-0.511 4.619,-0.151 6.688,-1.464 1.892,-1.208 2.74,-3.265 3.495,-5.255 0.958,-2.521 3.781,-3.302 6.182,-3.677 0.078,-0.006 0.136,-0.078 0.125,-0.151 -0.01,-0.078 -0.077,-0.135 -0.155,-0.125 -1.558,0.161 -3.073,0.469 -4.484,1.26 -1.609,0.906 -2.104,2.662 -2.823,4.208 -0.599,1.302 -1.333,2.609 -2.62,3.392 -0.635,0.385 -1.285,0.604 -2.016,0.733 -1.609,0.287 -3.141,0.245 -4.682,0.698 -1.792,0.526 -3.271,1.542 -5.162,1.896 -0.808,0.151 -1.562,0.229 -2.375,0.104 -1.562,-0.24 -2.26,-1.615 -3.104,-2.724 l 0,0 c -0.052,-0.068 -0.15,-0.078 -0.213,-0.026 -0.067,0.052 -0.078,0.151 -0.025,0.214 l 0.08,-0.06 z" />
  <path
     style="fill:#8f5946"
     id="path575"
     d="m 86.474,102.672 c 1.349,-0.234 2.733,-0.26 4.108,-0.146 2.635,0.22 5.229,0.162 7.88,-0.182 2.562,-0.333 4.911,-1.057 7.396,-1.755 2.964,-0.833 5.578,-2.161 8.656,-2.63 2.844,-0.438 5.536,-0.292 8.369,-0.718 3.428,-0.517 6.642,-1.309 9.808,-2.595 3.74,-1.521 7.505,-2.775 11.213,-4.292 3.599,-1.088 7.484,-1.65 11.167,-0.62 2.271,0.104 4.531,0.901 6.797,0.5 0.031,0 0.052,-0.03 0.052,-0.067 -0.005,-0.031 -0.036,-0.052 -0.066,-0.052 -1.75,0.233 -3.412,-0.287 -5.172,-0.595 -1.562,-0.271 -3.006,-0.65 -4.542,-0.771 -2.87,-0.219 -5.698,0.24 -8.396,1.219 -3.703,1.349 -7.318,2.651 -10.964,4.151 -2.703,1.108 -5.38,1.797 -8.333,2.37 -4.969,0.974 -9.792,0.333 -14.464,2.155 -4.188,1.63 -8.495,2.854 -12.933,3.412 -2.411,0.005 -4.807,0.219 -7.239,-0.047 -1.156,-0.12 -2.281,0.167 -3.359,0.557 -0.031,0.006 -0.052,0.037 -0.047,0.068 0.005,0.031 0.037,0.052 0.068,0.047 l 0.001,-0.009 0,0 z" />
  <path
     style="fill:#8f5946"
     id="path577"
     d="m 103.089,101.172 c 1.011,-0.188 2.109,-0.724 3.078,-0.193 1.725,0.943 3.422,1.833 5.37,2.005 2.25,0.198 4.469,0.276 6.719,0.375 1.636,0.073 3.24,0.333 4.892,0.517 1.167,0.13 2.312,0.108 3.463,0.099 2.245,-0.01 4.458,-0.552 6.552,-1.411 1.495,-0.614 2.818,-1.375 4.208,-2.354 2.307,-1.635 4.432,-3.078 7.01,-3.995 2.167,-0.776 4.24,-1.562 6.484,-2.188 1.49,-0.41 2.984,-0.516 4.422,-1.03 0.703,-0.255 0.26,-1.047 0.031,-1.511 -0.005,-0.03 -0.037,-0.047 -0.068,-0.042 -0.031,0.012 -0.047,0.042 -0.042,0.068 0.135,0.432 0.505,1.094 -0.078,1.318 -1.125,0.432 -2.292,0.458 -3.505,0.713 -2.604,0.547 -4.906,1.338 -7.333,2.208 -3.464,1.245 -6.156,3.557 -9.365,5.448 -2.083,1.229 -4.26,1.78 -6.63,2.182 -1.682,0.287 -3.28,0.125 -4.932,0.058 -1.708,-0.078 -3.396,-0.339 -5.109,-0.469 -1.25,-0.094 -2.489,-0.073 -3.739,-0.156 -1.406,-0.089 -2.771,-0.072 -4.198,-0.391 -1.63,-0.365 -2.892,-1.297 -4.427,-1.797 -0.942,-0.309 -1.886,0.24 -2.817,0.453 l 0,0 c -0.026,0 -0.047,0.025 -0.042,0.052 0.004,0.031 0.029,0.047 0.056,0.041 l 0,0 z" />
  <path
     style="fill:#8f5946"
     id="path579"
     d="m 101.177,101.672 c 1.37,-0.224 2.693,-0.771 4.083,-0.781 0.271,0 0.464,0.308 0.562,0.578 0.141,0.385 0.114,0.807 0.317,1.177 0.327,0.589 0.775,1.037 1.333,1.422 2.275,1.573 4.391,2.62 6.661,4.203 2.1,1.464 3.87,2.771 6.006,4.125 2.661,1.688 5.547,2.167 8.53,2.345 2.72,0.16 5.453,0.113 8.1,-0.725 0.797,-0.25 1.38,-0.823 2.104,-1.203 1.458,-0.766 2.953,-1.447 3.99,-2.739 1.323,-0.464 2.474,-1.458 2.787,-2.859 0.4,-0.401 0.917,-0.641 1.323,-1.047 0.479,-0.469 0.536,-1.125 0.771,-1.708 1.266,-0.427 2.188,-1.442 2.864,-2.558 1.422,-1.197 2.521,-2.646 3.823,-4.021 0.917,-0.963 1.338,-2.229 1.469,-3.531 0.141,-1.479 -0.401,-2.9 -0.953,-4.266 -0.891,-1.234 -2.526,-1.333 -3.912,-1.521 l 0,0 c -0.037,0 -0.068,0.026 -0.068,0.062 0,0.036 0.026,0.066 0.062,0.066 1.047,0.203 1.969,0.771 2.99,1.053 1.104,1.177 1.328,2.958 1.458,4.516 -0.188,1.193 -0.573,2.354 -1.365,3.297 -0.87,1.021 -1.75,1.901 -2.672,2.87 -0.808,0.843 -1.484,1.661 -2.245,2.552 -0.276,0.318 -0.594,0.595 -0.984,0.762 -0.322,0.135 -0.667,0.244 -0.864,0.535 -0.345,0.521 -0.271,1.178 -0.75,1.604 -0.359,0.333 -0.761,0.558 -1.151,0.865 -0.109,0.083 -0.198,0.188 -0.229,0.322 -0.302,1.36 -1.385,2.156 -2.577,2.61 -1.125,1.317 -2.656,2.031 -4.188,2.838 -0.26,0.135 -0.495,0.338 -0.755,0.495 -2.729,1.641 -5.917,1.375 -8.901,1.255 -2.927,-0.115 -5.771,-0.625 -8.396,-2.25 -2.448,-1.516 -4.434,-3.12 -6.859,-4.703 -2.025,-1.322 -3.891,-2.292 -5.88,-3.692 -0.484,-0.338 -0.912,-0.725 -1.12,-1.255 -0.229,-0.583 -0.224,-1.292 -0.761,-1.74 -0.453,-0.375 -1.005,-0.213 -1.516,-0.088 -1.095,0.271 -2.067,0.708 -3.114,1.042 -0.026,0.005 -0.042,0.03 -0.037,0.057 0.012,0.031 0.038,0.047 0.064,0.036 l 0,0 z" />
  <path
     style="fill:#8f5946"
     id="path581"
     d="m 123.359,103.62 c 0.599,0.239 1.245,0.302 1.87,0.224 1.458,-0.182 2.858,-0.521 4.316,-0.401 1.104,0.423 2.125,1 3.22,1.47 0.927,0.4 1.858,0.562 2.869,0.76 1.798,0.354 3.47,0.526 5.256,0.281 0.333,-0.042 0.661,0.01 0.994,-0.026 1.839,-0.219 3.62,-0.505 5.317,-1.255 1.037,-0.464 1.797,-1.318 2.672,-2.005 0.021,-0.021 0.021,-0.052 0,-0.073 -0.016,-0.021 -0.052,-0.026 -0.073,-0.005 -2.792,2.474 -6.655,2.854 -10.208,3.021 -3.229,0.151 -6.369,-0.682 -9.266,-2.25 -0.239,-0.13 -0.495,-0.161 -0.75,-0.202 -2.141,-0.333 -4.12,1 -6.177,0.375 -0.026,-0.017 -0.052,0 -0.068,0.021 -0.008,0.024 0.002,0.055 0.028,0.065 l 0,0 z" />
  <path
     style="fill:#8f5946"
     id="path583"
     d="m 107.74,100.422 c 6.401,0.49 12.766,1.51 19.208,1.255 2.771,-0.11 5.489,-0.407 8.213,-1.183 2.375,-0.683 4.427,-1.87 6.51,-3.058 0.031,-0.016 0.042,-0.058 0.026,-0.089 -0.016,-0.031 -0.052,-0.042 -0.083,-0.025 -2.109,1.094 -4.219,2.119 -6.531,2.817 -2.724,0.823 -5.474,1.083 -8.26,1.203 -2.136,0.094 -4.25,0.104 -6.391,-0.057 -4.25,-0.329 -8.453,-0.637 -12.678,-0.958 -0.025,-0.005 -0.052,0.01 -0.057,0.042 -0.004,0.027 0.017,0.053 0.043,0.053 l 0,0 z" />
  <path
     style="fill:#8f5946"
     id="path585"
     d="m 109.781,100.094 c 4.312,0.057 8.625,0.036 12.938,0.057 1.828,0.012 3.615,-0.099 5.47,-0.38 3.688,-0.562 7.208,-1.099 10.733,-2.03 3.062,-1.131 6.267,-1.812 9.312,-2.99 0.031,-0.017 0.047,-0.052 0.031,-0.083 -0.011,-0.037 -0.053,-0.047 -0.083,-0.037 -3.309,1 -6.662,1.787 -9.928,2.922 -3.322,0.807 -6.63,1.411 -10.072,1.859 -2.938,0.38 -5.809,0.578 -8.74,0.441 -3.225,-0.146 -6.438,0.184 -9.662,0.137 -0.031,0 -0.052,0.025 -0.052,0.052 0,0.025 0.022,0.052 0.053,0.052 l 0,0 z" />
  <path
     style="fill:#8f5946"
     id="path587"
     d="m 112.094,99.308 c 0.391,-0.146 0.802,-0.141 1.202,-0.156 3.234,-0.15 6.438,-0.172 9.678,-0.4 4.188,-0.292 8.162,-0.963 12.344,-1.963 4.031,-0.97 7.672,-2.276 11.51,-3.615 2.708,-0.938 5.542,-1.245 8.386,-1.198 0.1,0 0.183,-0.083 0.183,-0.182 0,-0.1 -0.083,-0.183 -0.183,-0.183 -2.787,-0.03 -5.562,0.392 -8.261,1.089 -3.927,1.516 -7.792,2.812 -12.016,3.802 -4.067,0.958 -7.901,1.594 -11.97,1.958 -3.66,0.329 -7.292,0.297 -10.905,0.75 -0.026,0.011 -0.036,0.042 -0.031,0.067 0.011,0.026 0.037,0.036 0.063,0.031 l 0,0 z" />
  <path
     style="fill:#8f5946"
     id="path589"
     d="m 122.047,97.224 c 3.142,-0.483 6.271,-0.708 9.47,-1.083 3.162,-0.37 6.083,-1.328 9.005,-2.495 3.078,-1.233 6.094,-2.229 9.438,-2.792 1.595,-0.266 3.104,-0.38 4.698,-0.01 0.12,0.026 0.271,0.078 0.312,0.239 0.062,0.079 0.178,0.089 0.256,0.025 0.077,-0.062 0.088,-0.177 0.021,-0.255 -0.156,-0.363 -0.568,-0.447 -0.917,-0.495 -3.37,-0.469 -6.531,0.423 -9.708,1.396 -2.714,0.828 -5.183,1.99 -7.886,2.844 -4.838,1.521 -9.828,1.573 -14.719,2.526 l 0,0 c -0.026,0.01 -0.042,0.037 -0.031,0.062 0.004,0.028 0.03,0.043 0.061,0.038 l 0,0 z" />
  <path
     style="fill:#8f5946"
     id="path591"
     d="m 129.558,103.391 c 0.552,-0.083 1.088,-0.271 1.655,-0.245 2.609,1.078 5.47,1.037 8.239,0.97 1.484,-0.037 2.948,-0.125 4.443,-0.318 2.349,-0.302 4.844,-0.464 6.797,-1.859 0.057,-0.058 0.057,-0.15 0,-0.214 -0.058,-0.057 -0.151,-0.062 -0.213,-0.005 -3.434,1.771 -7.401,1.641 -11.146,2.047 -2.745,0.005 -5.453,-0.047 -8.192,-0.775 -0.536,-0.146 -1.058,0.213 -1.604,0.302 -0.031,0.011 -0.047,0.037 -0.037,0.062 0.005,0.024 0.031,0.04 0.058,0.035 l 0,0 z" />
  <path
     style="fill:#8f5946"
     id="path593"
     d="m 131.594,103.005 c 0.678,-0.25 1.359,-0.604 2.083,-0.468 3.381,0.62 6.548,0.463 9.859,0.057 3.427,-0.412 6.953,-1.099 9.708,-3.234 0.067,-0.052 0.073,-0.15 0.016,-0.219 -0.052,-0.062 -0.15,-0.067 -0.214,-0.016 -2.792,1.941 -6.15,2.724 -9.516,3.12 -3.312,0.391 -6.51,0.583 -9.864,0.083 -0.745,-0.115 -1.4,0.358 -2.104,0.583 l 0,0 c -0.026,0.005 -0.036,0.036 -0.031,0.062 0.011,0.027 0.037,0.043 0.063,0.032 l 0,0 z" />
  <path
     style="fill:#8f5946"
     id="path595"
     d="m 134.308,101.886 c 0.458,-0.271 0.922,-0.573 1.447,-0.615 1.588,-0.108 3.151,0.245 4.75,0.1 0.995,-0.095 1.948,-0.24 2.958,-0.392 1.442,-0.208 2.803,-0.447 4.183,-0.88 2.4,-0.75 4.88,-1.302 6.932,-2.76 0.052,-0.047 0.059,-0.125 0.011,-0.177 -0.042,-0.053 -0.119,-0.059 -0.172,-0.012 -2.886,1.47 -5.87,2.453 -9.172,3.125 -1.662,0.34 -3.192,0.562 -4.828,0.715 -1.474,0.146 -2.938,-0.012 -4.412,0.062 -0.655,0.031 -1.182,0.463 -1.75,0.745 -0.025,0.016 -0.03,0.047 -0.021,0.068 0.016,0.026 0.047,0.036 0.074,0.021 l 0,0 z" />
  <path
     style="fill:#8f5946"
     id="path597"
     d="m 136.526,100.714 c 1.224,-1.052 2.885,-0.963 4.417,-1.172 1.583,-0.219 3.057,-0.526 4.588,-0.969 3.271,-0.958 6.412,-2.042 9.755,-2.37 0.088,0 0.156,-0.073 0.156,-0.162 0,-0.089 -0.073,-0.162 -0.162,-0.162 -3.375,0.229 -6.531,1.36 -9.812,2.318 -0.932,0.275 -1.816,0.5 -2.775,0.729 -2.151,0.521 -4.475,0.292 -6.225,1.708 -0.025,0.016 -0.025,0.047 -0.01,0.068 0.016,0.027 0.047,0.027 0.068,0.012 l 0,0 z" />
  <path
     style="fill:#8f5946"
     id="path599"
     d="m 138.438,99.386 c 3.021,-1.573 6.328,-2.271 9.636,-3.24 2.469,-0.724 4.896,-1.266 7.406,-1.593 0.099,0 0.177,-0.079 0.177,-0.177 0,-0.1 -0.078,-0.177 -0.177,-0.177 -2.559,0.312 -5.037,0.869 -7.537,1.625 -3.292,1 -6.568,1.839 -9.552,3.474 l 0,0 c -0.026,0.01 -0.036,0.042 -0.021,0.068 0.01,0.025 0.042,0.035 0.068,0.02 l 0,0 z" />
  <path
     style="fill:#8f5946"
     id="path601"
     d="m 115.24,103.172 c 1.26,0.182 2.516,0.156 3.776,0.5 1.875,0.505 3.578,1.047 5.505,1.458 2.322,0.5 4.53,0.547 6.822,0.657 1.458,0.066 2.923,0.042 4.37,-0.178 0.083,0 0.151,-0.067 0.146,-0.155 0,-0.083 -0.067,-0.151 -0.156,-0.146 -3.703,0.245 -7.316,0.146 -11.083,-0.537 -1.818,-0.333 -3.448,-0.797 -5.224,-1.266 -1.385,-0.37 -2.755,-0.286 -4.142,-0.427 -0.025,-0.005 -0.052,0.01 -0.057,0.037 -0.004,0.031 0.017,0.057 0.043,0.057 l 0,0 z" />
  <path
     style="fill:#8f5946"
     id="path603"
     d="m 108.464,102.782 c 0.906,0.771 2.104,0.91 3.261,1.177 3.287,0.75 6.213,1.469 9.542,2.146 1.833,0.375 3.489,0.678 5.312,0.963 3.474,0.537 6.823,0.448 10.24,0.651 3.672,-0.234 7.567,-0.729 10.573,-3.052 0.025,-0.021 0.025,-0.058 0.005,-0.078 -0.021,-0.026 -0.053,-0.026 -0.078,-0.005 -3.078,2.042 -6.88,2.511 -10.484,2.771 -2.917,-0.203 -5.807,-0.072 -8.755,-0.4 -3.391,-0.38 -6.521,-1.053 -9.932,-1.803 -2.255,-0.494 -4.26,-0.9 -6.526,-1.375 -1.104,-0.229 -2.229,-0.333 -3.089,-1.072 l 0,0 c -0.021,-0.017 -0.057,-0.017 -0.073,0.005 -0.017,0.019 -0.017,0.051 0.004,0.072 l 0,0 z" />
  <path
     style="fill:#8f5946"
     id="path605"
     d="m 110.177,104.454 c 2.964,1.15 5.979,1.682 9.198,2.37 3.142,0.672 6,1.354 9.104,1.667 3.516,0.358 6.932,0.635 10.474,0.172 3.021,-0.392 5.969,-1.229 8.271,-3.225 0.025,-0.025 0.03,-0.062 0.01,-0.094 -0.026,-0.026 -0.067,-0.031 -0.094,-0.005 -3.062,2.255 -6.892,2.938 -10.595,3.146 -3.363,0.188 -6.646,-0.089 -10.036,-0.599 -3.858,-0.578 -7.364,-1.37 -11.255,-2.13 -1.775,-0.343 -3.417,-0.724 -5.037,-1.39 -0.025,-0.017 -0.057,0 -0.066,0.025 -0.01,0.021 0,0.052 0.026,0.063 l 0,0 z" />
  <path
     style="fill:#8f5946"
     id="path607"
     d="m 114.875,107.157 c 5.392,1.719 11,2.292 16.662,2.833 1.87,0.177 3.703,0.125 5.573,-0.037 2.537,-0.225 5.026,-0.609 7.406,-1.568 0.417,-0.167 0.771,-0.443 1.114,-0.729 0.073,-0.037 0.104,-0.131 0.062,-0.203 -0.037,-0.073 -0.13,-0.104 -0.203,-0.062 -2.917,1.635 -6.307,2.078 -9.599,2.267 -2.338,0.13 -4.625,0.104 -6.989,-0.24 -4.776,-0.698 -9.474,-0.823 -13.984,-2.354 -0.025,-0.01 -0.052,0 -0.067,0.026 -0.011,0.025 -10e-4,0.051 0.025,0.067 l 0,0 z" />
  <path
     style="fill:#8f5946"
     id="path609"
     d="m 118.875,109.704 c 1.262,0.583 2.595,0.896 3.99,1.099 3.182,0.463 6.234,1.062 9.396,0.968 3.927,-0.113 8.016,-0.338 11.619,-2.072 0.109,-0.058 0.151,-0.193 0.095,-0.298 -0.058,-0.108 -0.193,-0.15 -0.303,-0.094 -3.969,1.734 -8.396,2.142 -12.682,2.104 -2.63,-0.026 -5.188,-0.407 -7.844,-0.767 -1.463,-0.197 -2.896,-0.405 -4.229,-1.03 l 0,0 c -0.025,-0.017 -0.052,0 -0.067,0.021 -0.011,0.027 -10e-4,0.058 0.025,0.069 l 0,0 z" />
  <path
     style="fill:#8f5946"
     id="path611"
     d="m 121.688,111.625 c 3.275,0.781 6.608,1.531 9.995,1.391 1.974,-0.078 3.917,-0.287 5.9,-0.495 1.495,-0.155 2.85,-0.677 4.042,-1.557 0.047,-0.026 0.062,-0.083 0.037,-0.13 -0.025,-0.042 -0.083,-0.058 -0.13,-0.031 -3.036,1.688 -6.646,1.411 -9.984,1.89 -3.312,0.031 -6.608,-0.469 -9.838,-1.167 l 0,0 c -0.025,-0.005 -0.052,0.012 -0.062,0.037 -0.007,0.026 0.014,0.057 0.04,0.062 l 0,0 z" />
  <path
     style="fill:#8f5946"
     id="path613"
     d="m 64.844,78.089 c -1.928,2.125 -4.558,3.792 -5.573,6.589 -0.35,0.963 -0.646,1.917 -0.818,2.948 -0.146,0.844 -0.108,1.662 -0.026,2.49 0.136,1.375 0.615,2.63 1.303,3.849 1.588,2.833 4.322,4.51 7.396,5.318 3.392,0.896 6.458,2.125 9.725,3.255 2.802,0.968 5.692,1.177 8.646,0.687 3.224,-0.536 6.307,-0.5 9.474,-0.495 1.526,0.005 3.012,-0.025 4.553,-0.391 1.885,-0.443 3.63,-0.828 5.469,-1.359 2.359,-0.677 4.531,-1.625 6.745,-2.566 0.062,-0.021 0.094,-0.089 0.073,-0.151 -0.021,-0.057 -0.083,-0.094 -0.146,-0.073 -4.297,1.692 -8.588,3.083 -13.271,3.845 -2.901,0.474 -5.688,0.088 -8.548,0.229 -2.119,0.109 -4.172,0.588 -6.292,0.698 -1.458,0.073 -2.858,0.005 -4.349,-0.292 -3.458,-0.698 -6.276,-2.281 -9.625,-3.162 -2.667,-0.703 -5.213,-1.401 -7.338,-3.229 -2.62,-2.255 -4.01,-5.599 -3.24,-9.052 0.214,-0.948 0.387,-1.849 0.771,-2.719 0.917,-2.047 2.729,-3.317 4.125,-5.099 0.338,-0.438 0.625,-0.875 1.021,-1.245 0.021,-0.021 0.021,-0.053 0,-0.073 -0.023,-0.023 -0.054,-0.023 -0.075,-0.002 l 0,0 z" />
  <path
     style="fill:#8f5946"
     id="path615"
     d="m 58.953,92.38 c 0.547,1.13 0.995,2.349 1.958,3.208 2.672,2.391 6.177,2.818 9.443,3.734 4.072,1.864 8.26,4.03 12.863,3.833 2.521,-0.109 4.979,-0.531 7.517,-0.793 2.016,-0.207 3.974,0.168 5.974,0.048 2.338,-0.142 4.656,-0.35 6.892,-1.12 3.271,-1.125 6.412,-2.412 9.702,-3.386 0.042,-0.016 0.062,-0.062 0.053,-0.104 -0.017,-0.042 -0.062,-0.068 -0.104,-0.052 -2.573,0.63 -5.042,1.608 -7.594,2.302 -2.854,1.364 -6.021,1.651 -9.146,1.901 -1.53,0.125 -3.016,-0.24 -4.547,-0.137 -1.297,0.089 -2.558,0.214 -3.858,0.365 -1.646,0.184 -3.245,0.438 -4.887,0.521 -2.65,0.135 -5.219,-0.625 -7.677,-1.568 -1.886,-0.724 -3.625,-1.713 -5.505,-2.422 -3.088,-0.725 -6.208,-1.323 -8.838,-3.396 -1.011,-0.792 -1.667,-1.838 -2.156,-2.979 -0.011,-0.026 -0.042,-0.036 -0.067,-0.026 -0.028,0.02 -0.038,0.045 -0.023,0.071 l 0,0 z" />
  <path
     style="fill:#8f5946"
     id="path617"
     d="m 63.599,97.37 c 2.077,1.01 4.125,1.933 6.495,2.433 1.224,0.255 2.183,0.963 3.369,1.281 0.713,0.192 1.381,0.354 2.125,0.505 0.22,0.047 0.381,0.177 0.578,0.255 0.031,0.016 0.067,0 0.083,-0.031 0.012,-0.03 0,-0.067 -0.03,-0.078 -1.953,-0.839 -3.901,-1.65 -5.923,-2.369 -0.521,-0.188 -1.088,-0.208 -1.604,-0.392 -1.698,-0.608 -3.443,-0.927 -5.062,-1.698 -0.025,-0.005 -0.052,0.006 -0.062,0.031 -0.009,0.026 0.005,0.058 0.031,0.063 l 0,0 z" />
  <path
     style="fill:#8f5946"
     id="path619"
     d="m 64.068,89.125 c 1.708,0.65 3.625,0.948 5.375,0.25 1.312,-0.517 2.599,-1.042 3.688,-1.995 1.006,-0.885 1.708,-1.911 2.823,-2.703 0.901,-0.641 1.901,-0.891 2.906,-1.25 1.672,-0.599 2.714,-2.104 3.995,-3.25 2.083,-1.208 4.552,-1.708 6.958,-1.667 0.578,0.005 1.125,-0.297 1.698,-0.427 0.042,-0.01 0.072,-0.046 0.066,-0.088 -0.005,-0.047 -0.047,-0.073 -0.088,-0.067 -0.542,0.078 -1.073,0.312 -1.609,0.234 -1.4,-0.208 -2.692,-0.021 -4.047,0.316 -1.177,0.292 -2.297,0.588 -3.26,1.359 -1.323,1.068 -2.234,2.521 -3.823,3.13 -1.062,0.406 -2.167,0.651 -3.113,1.364 -1.417,1.072 -2.292,2.505 -3.823,3.422 -2.359,1.417 -5.1,2.266 -7.719,1.271 l 0,0 c -0.026,-0.005 -0.053,0.012 -0.062,0.037 -0.007,0.028 0.009,0.054 0.035,0.064 l 0,0 z" />
  <path
     style="fill:#8f5946"
     id="path621"
     d="m 71.755,94.208 c 0.428,-0.421 0.708,-0.938 0.906,-1.495 0.557,-1.588 0.583,-3.213 0.865,-4.896 0.099,-0.599 0.286,-1.119 0.646,-1.613 0.88,-1.225 2.104,-1.97 3.401,-2.578 0.026,-0.005 0.042,-0.037 0.031,-0.062 -0.012,-0.025 -0.037,-0.037 -0.062,-0.03 -1.552,0.792 -3.146,1.65 -4.089,3.224 -0.364,0.61 -0.479,1.287 -0.531,1.969 -0.099,1.313 -0.25,2.542 -0.521,3.87 -0.12,0.583 -0.302,1.13 -0.729,1.552 -0.016,0.021 -0.01,0.053 0.012,0.068 0.019,0.012 0.05,0.012 0.071,-0.009 l 0,0 z" />
  <path
     style="fill:#8f5946"
     id="path623"
     d="m 90.724,102.339 c 0.5,-0.068 1.26,-0.115 1.432,0.464 0.25,0.854 0.115,1.75 0.578,2.552 0.833,1.422 1.917,2.531 3.339,3.387 1.167,0.702 2.37,1.057 3.63,1.474 1.141,0.37 2.177,0.87 3.245,1.453 1.088,0.594 1.781,1.552 2.844,2.229 0.725,0.464 1.517,0.562 2.323,0.782 0.625,0.171 1.125,0.593 1.344,1.224 0.017,0.026 0.047,0.037 0.068,0.021 0.026,-0.01 0.036,-0.042 0.026,-0.068 -0.281,-0.719 -0.892,-1.203 -1.558,-1.525 -0.573,-0.276 -1.188,-0.417 -1.75,-0.72 -1.177,-0.63 -1.912,-1.744 -3.099,-2.38 -0.573,-0.307 -1.146,-0.552 -1.729,-0.833 -1.271,-0.613 -2.625,-0.891 -3.905,-1.453 -2.125,-0.932 -4.24,-2.521 -4.698,-4.963 -0.109,-0.588 0.011,-1.349 -0.536,-1.672 -0.464,-0.271 -1.052,-0.213 -1.573,-0.073 -0.031,0.006 -0.052,0.036 -0.047,0.068 0.005,0.031 0.037,0.052 0.068,0.046 v -0.012 h -0.002 z" />
  <path
     style="fill:#8f5946"
     id="path625"
     d="m 104.089,112.33736 c 0.595,0.61349 1.234,1.19535 1.933,1.73769 0.822,1.45703 1.354,3.05083 1.162,4.64858 -0.198,1.66733 -0.448,3.30777 -1.214,4.87548 -1.642,3.37339 -2.808,6.75705 -3.359,10.3684 -0.219,1.43252 -0.213,2.84132 -0.198,4.26989 0,0.0237 0.026,0.0411 0.052,0.0411 0.026,0 0.053,-0.0166 0.053,-0.0411 -0.12,-2.79231 0.755,-5.40753 1.427,-8.22751 0.568,-2.40019 1.74,-4.4549 2.656,-6.72385 0.604,-1.50288 0.87,-3.00656 1.062,-4.56241 0.193,-1.56455 -0.333,-3.08324 -1.073,-4.5292 -0.442,-0.8728 -1.63,-1.25149 -2.417,-1.90687 l 0,0 c -0.021,-0.0166 -0.052,-0.0166 -0.072,-0.004 -0.02,0.0126 -0.028,0.0372 -0.012,0.0538 l 0,0 z" />
  <path
     style="fill:#8f5946"
     id="path627"
     d="m 102.183,131.594 c 0,-0.156 -0.026,-0.307 0.005,-0.464 0.198,-1.01 0.505,-1.885 0.698,-2.89 0.292,-1.521 0.188,-2.928 -0.146,-4.443 -0.521,-2.37 -1.182,-4.562 -1.156,-6.912 0.017,-1.802 0.734,-3.588 2.021,-4.906 0.088,-0.094 0.083,-0.238 -0.012,-0.328 -0.099,-0.088 -0.244,-0.083 -0.332,0.017 -1.365,1.417 -2.115,3.312 -2.146,5.245 -0.026,1.358 0.151,2.691 0.495,4.052 0.328,1.302 0.651,2.49 0.88,3.818 0.193,1.113 0.271,2.146 0.125,3.255 -0.156,1.208 -0.521,2.349 -0.537,3.557 0,0.026 0.026,0.047 0.052,0.047 0.026,-0.001 0.053,-0.022 0.053,-0.048 l 0,0 z" />
  <path
     style="fill:#8f5946"
     id="path629"
     d="m 95.542,108 c -1.13,-0.917 -2.292,-1.979 -2.667,-3.453 -0.12,-0.458 -0.182,-1.057 0.25,-1.328 0.568,-0.349 1.198,-0.562 1.854,-0.604 0.113,0.005 0.208,-0.083 0.213,-0.198 0.005,-0.114 -0.088,-0.208 -0.198,-0.213 -0.75,0.005 -1.474,0.271 -2.141,0.63 -0.262,0.141 -0.38,0.433 -0.422,0.704 -0.309,2.066 1.577,3.483 3.057,4.546 0.021,0.016 0.052,0.011 0.068,-0.017 0.017,-0.02 0.006,-0.051 -0.014,-0.067 l 0,0 z" />
  <path
     style="fill:#8f5946"
     id="path633"
     d="m 109.511,105.193 c 0.233,0.542 0.771,0.896 0.863,1.512 0.318,2.078 0.271,4.088 0.271,6.141 -0.392,2.099 -0.51,4.271 -1.412,6.245 -2.401,5.26 -4.688,10.349 -5.739,16.182 -0.162,0.901 -0.271,1.755 -0.396,2.637 0,0.03 0.016,0.057 0.047,0.057 0.025,0.005 0.052,-0.016 0.057,-0.042 0.458,-2.812 1.073,-5.589 2.109,-8.266 0.817,-2.12 1.662,-4.178 2.505,-6.287 0.755,-1.892 1.817,-3.578 2.358,-5.567 0.453,-1.662 0.673,-3.297 0.938,-4.958 -0.057,-2.214 0.219,-4.474 -0.458,-6.63 -0.151,-0.479 -0.635,-0.812 -1.073,-1.088 -0.016,-0.021 -0.052,-0.021 -0.067,-0.005 -0.019,0.017 -0.024,0.048 -0.003,0.069 l 0,0 z" />
  <path
     style="fill:#8f5946"
     id="path635"
     d="m 98.094,138.24808 c 0.161,-1.64324 -0.303,-3.26251 -0.151,-4.90575 0.162,-1.8644 0.474,-3.67699 0.745,-5.5499 0.156,-1.07256 0.141,-2.13583 0.031,-3.20297 -0.136,-1.32929 -0.198,-2.61759 -0.464,-3.95461 -0.292,-1.43058 -0.63,-2.73049 -1.025,-4.16494 -0.703,-2.54954 -0.229,-4.93359 0.302,-7.36945 0.005,-0.1013 -0.099,-0.18559 -0.229,-0.18946 -0.125,0 -0.234,0.0766 -0.24,0.17708 -0.475,2.14666 -0.948,4.26934 -0.469,6.50028 0.386,1.77625 0.827,3.39088 1.214,5.16326 0.286,1.30531 0.354,2.54954 0.479,3.83861 0.287,2.89211 -0.297,5.73086 -0.567,8.61909 -0.161,1.69196 0.427,3.34758 0.28,5.02639 l 0,0 c -0.005,0.0193 0.012,0.0402 0.037,0.0448 0.031,0.004 0.057,-0.0124 0.057,-0.0325 l 0,0 z" />
  <path
     style="fill:#8f5946"
     id="path637"
     d="m 95.38,107.943 c 0.401,0.485 0.953,0.854 1.234,1.412 0.266,0.517 0.37,1.137 0.229,1.725 l 0,0 c -0.016,0.062 0.026,0.13 0.09,0.146 0.066,0.011 0.13,-0.025 0.146,-0.094 0.234,-0.593 0.198,-1.255 -0.094,-1.797 -0.344,-0.635 -1.036,-0.948 -1.536,-1.458 -0.021,-0.021 -0.052,-0.021 -0.068,0 -0.022,0.014 -0.022,0.045 -0.001,0.066 l 0,0 z" />
  <path
     style="fill:#8f5946"
     id="path639"
     d="m 107.511,138.45004 c 0.135,-0.52999 0.191,-1.04646 0.316,-1.58997 0.104,-0.44949 0.162,-0.88224 0.203,-1.33109 0.224,-2.30736 0.625,-4.5851 1.156,-6.85833 0.854,-1.93579 1.469,-3.9218 2.62,-5.79577 0.702,-1.69043 1.667,-3.30037 2.562,-4.96826 1.281,-2.38399 3.099,-4.61086 3.828,-7.07599 0,-0.0837 -0.104,-0.15069 -0.229,-0.15069 -0.13,-0.003 -0.233,0.0637 -0.238,0.14747 -0.5,1.79347 -1.703,3.44784 -2.734,5.15179 -1.636,2.69697 -2.995,5.35529 -4.339,8.13018 -1.062,2.20046 -2.067,4.3391 -2.406,6.631 -0.307,2.0794 -0.552,4.11886 -0.719,6.18731 -0.016,0.17194 -0.062,0.34195 -0.083,0.51325 -0.026,0.18417 0.026,0.37221 0.031,0.55639 0.005,0.14747 0.005,0.29494 -0.062,0.44048 -0.005,0.0161 0.011,0.0335 0.036,0.0367 0.026,0.002 0.052,-0.008 0.058,-0.0245 l 0,0 z" />
  <path
     style="fill:#8f5946"
     id="path647"
     d="m 106.026,9.261 c 0.469,0.714 1.344,0.25 1.938,-0.036 1.245,-0.599 2.6,-0.391 3.948,-0.192 2.808,0.422 4.683,2.567 7.297,3.38 1.22,0.375 2.463,0.197 3.755,0.438 1.661,0.308 3.078,0.864 4.495,1.808 2.72,1.807 5.396,3.042 8.021,4.697 1.4,1.392 2.562,3.005 3.641,4.656 0.017,0.026 0.047,0.037 0.073,0.021 0.026,-0.017 0.037,-0.048 0.021,-0.078 -1.062,-1.662 -1.927,-3.49 -3.349,-4.892 -2.609,-1.713 -5.318,-2.912 -8.047,-4.739 -1.391,-0.933 -2.771,-1.5 -4.391,-1.859 -1.396,-0.312 -2.714,-0.156 -4.089,-0.495 -1.661,-0.406 -2.833,-1.599 -4.327,-2.333 -2.225,-1.088 -4.818,-1.75 -7.184,-0.828 -0.557,0.213 -1.15,0.651 -1.719,0.245 l 0,0 c -0.088,-0.037 -0.188,0.005 -0.219,0.093 -0.036,0.089 0.005,0.188 0.094,0.22 l 0.042,-0.106 z" />
  <path
     style="fill:#8f5946"
     id="path649"
     d="m 159.167,43.667 c 0.1,0.792 0.406,1.537 0.463,2.338 0.058,0.75 0.642,1.271 1.213,1.729 1.292,1.036 2.604,1.792 3.583,3.173 0.923,1.307 1.479,2.708 1.6,4.25 0.208,2.66 -0.35,5.285 -1.184,7.797 -0.016,0.042 0.006,0.088 0.042,0.099 0.042,0.015 0.083,-0.005 0.1,-0.042 1.817,-3.911 2.558,-8.76 -0.297,-12.526 -0.989,-1.307 -2.239,-2.094 -3.536,-3.089 -0.359,-0.271 -0.693,-0.557 -0.896,-0.932 -0.483,-0.885 -0.703,-1.859 -0.995,-2.812 l 0,0 c 0,-0.025 -0.025,-0.047 -0.052,-0.042 -0.031,0.005 -0.046,0.031 -0.041,0.057 l 0,0 z" />
  <path
     style="fill:#8f5946"
     id="path651"
     d="m 166.328,55.407 c -0.141,1.447 -0.37,2.932 0.531,4.271 1.62,2.39 2.938,4.718 3.141,7.505 0.198,2.729 -0.233,5.422 -1,8.088 -0.458,1.583 -1.099,2.958 -2.072,4.359 -1.281,1.844 -2.595,3.547 -4.683,4.302 -1.65,0.6 -3.391,0.767 -5.13,0.854 -0.5,0.025 -0.995,0.12 -1.49,0.218 l 0,0 c -0.062,0.005 -0.113,0.058 -0.108,0.12 0.005,0.062 0.058,0.108 0.12,0.108 2.988,-0.162 6.271,0.095 8.76,-2 3.572,-3.016 5.385,-7.28 5.905,-11.827 0.281,-2.479 0.359,-4.918 -0.489,-7.303 -0.683,-1.905 -1.922,-3.427 -2.812,-5.219 -0.542,-1.088 -0.495,-2.297 -0.566,-3.479 l 0,0 c 0,-0.025 -0.026,-0.047 -0.053,-0.047 -0.027,10e-4 -0.054,0.023 -0.054,0.05 l 0,0 z" />
  <path
     style="fill:#8f5946"
     id="path653"
     d="m 165.526,87.917 c 2.698,-2.547 2.974,-6.484 3.198,-9.995 0.021,-0.344 0.042,-0.703 0.155,-1.037 0.031,-0.088 -0.016,-0.188 -0.108,-0.219 -0.088,-0.031 -0.188,0.021 -0.219,0.108 -0.168,0.365 -0.287,0.75 -0.308,1.146 -0.099,1.781 -0.275,3.474 -0.608,5.281 -0.287,1.578 -1.006,2.88 -1.787,4.255 -0.088,0.162 -0.229,0.275 -0.386,0.375 -0.021,0.021 -0.021,0.052 -0.005,0.072 0.017,0.023 0.047,0.03 0.068,0.014 l 0,0 z" />
  <path
     style="fill:#8f5946"
     id="path655"
     d="m 97.328,44.438 c -0.036,0.526 -0.297,0.963 -0.552,1.406 -0.719,1.271 -1.531,2.401 -2.047,3.75 -0.595,1.547 -0.662,3.161 -0.833,4.776 0.28,1.453 1.025,2.775 2.229,3.713 1.475,1.157 3.167,2.245 5.078,1.907 0.094,-0.021 0.156,-0.11 0.136,-0.203 -0.016,-0.095 -0.108,-0.151 -0.202,-0.137 -3.042,-0.104 -6.178,-2.275 -6.771,-5.375 0.167,-1.724 0.297,-3.438 1,-5.062 0.516,-1.188 1.255,-2.234 1.662,-3.463 0.146,-0.434 0.364,-0.838 0.406,-1.302 0,-0.026 -0.017,-0.053 -0.047,-0.058 -0.028,10e-4 -0.054,0.017 -0.059,0.048 l 0,0 z" />
  <path
     style="fill:#8f5946"
     id="path657"
     d="m 91.672,62.755 c 1.958,-0.234 3.906,-0.646 5.75,-1.385 0.542,-0.22 1.142,-0.642 1.245,-1.297 l 0.017,-0.25 c 0,-0.053 -0.017,-0.1 -0.047,-0.142 L 98.554,59.577 C 98.309,59.181 97.912,58.952 97.543,58.69 l 0,0 c -0.047,-0.042 -0.114,-0.042 -0.155,0.006 -0.042,0.047 -0.037,0.114 0.005,0.155 0.292,0.271 0.578,0.559 0.755,0.922 l 0.146,0.173 -0.047,-0.136 0.031,0.198 c -0.167,0.474 -0.589,0.807 -1.011,0.974 -1.817,0.734 -3.692,1.312 -5.609,1.678 -0.026,0 -0.047,0.025 -0.042,0.057 0.004,0.028 0.03,0.044 0.056,0.038 l 0,0 z" />
</svg>
