<?xml version="1.0" encoding="UTF-8" standalone="no"?>
<!-- Created with Inkscape (http://www.inkscape.org/) -->

<svg
   xmlns:dc="http://purl.org/dc/elements/1.1/"
   xmlns:cc="http://creativecommons.org/ns#"
   xmlns:rdf="http://www.w3.org/1999/02/22-rdf-syntax-ns#"
   xmlns:svg="http://www.w3.org/2000/svg"
   xmlns="http://www.w3.org/2000/svg"
   xmlns:sodipodi="http://sodipodi.sourceforge.net/DTD/sodipodi-0.dtd"
   xmlns:inkscape="http://www.inkscape.org/namespaces/inkscape"
   width="201"
   height="44.13055"
   id="svg2"
   version="1.1"
   inkscape:version="0.48.1 r9760"
   sodipodi:docname="New document 1">
  <defs
     id="defs4" />
  <sodipodi:namedview
     id="base"
     pagecolor="#ffffff"
     bordercolor="#666666"
     borderopacity="1.0"
     inkscape:pageopacity="0.0"
     inkscape:pageshadow="2"
     inkscape:zoom="5.2716364"
     inkscape:cx="75.870325"
     inkscape:cy="-7.8935537"
     inkscape:document-units="px"
     inkscape:current-layer="layer1"
     showgrid="false"
     inkscape:window-width="948"
     inkscape:window-height="883"
     inkscape:window-x="2"
     inkscape:window-y="25"
     inkscape:window-maximized="0"
     fit-margin-top="0"
     fit-margin-left="0"
     fit-margin-right="0"
     fit-margin-bottom="0"
     inkscape:snap-global="false" />
  <metadata
     id="metadata7">
    <rdf:RDF>
      <cc:Work
         rdf:about="">
        <dc:format>image/svg+xml</dc:format>
        <dc:type
           rdf:resource="http://purl.org/dc/dcmitype/StillImage" />
        <dc:title></dc:title>
      </cc:Work>
    </rdf:RDF>
  </metadata>
  <g
     inkscape:label="Layer 1"
     inkscape:groupmode="layer"
     id="layer1"
     transform="translate(-185.29921,-593.45113)">
    <path
       style="fill:#aa0000"
       d="m 217.09887,637.57768 c -21.30692,-0.003 -23.57216,-0.16989 -26.48584,-1.94649 -1.7524,-1.06851 -3.6649,-2.83725 -4.25,-3.93052 -0.60992,-1.13966 -1.06382,-8.10753 -1.06382,-16.331 0,-11.37903 0.32254,-14.80373 1.5607,-16.57145 0.85839,-1.22553 2.86104,-2.90065 4.45034,-3.72251 2.3014,-1.1901 7.27651,-1.49429 24.4393,-1.49429 l 21.54966,0 0,3.5 0,3.5 -20.5,0 c -19.16667,0 -20.63008,0.13008 -22.5,2 -1.75758,1.75758 -2,3.33333 -2,13 0,9.76256 0.23103,11.23103 2.05371,13.05371 1.96693,1.96693 2.98273,2.04088 24.0379,1.75 18.22236,-0.25174 22.14621,-0.56038 22.93098,-1.80371 0.52073,-0.825 0.95367,-7.25333 0.9621,-14.28518 0.0122,-10.1736 0.35204,-13.29911 1.66381,-15.30111 0.90667,-1.38377 2.90933,-3.16793 4.45034,-3.96482 2.29251,-1.18551 9.26689,-1.44889 38.36619,-1.44889 l 35.56434,0 c 1.91177,0.0228 3.70701,1.08066 5.23369,2.67854 1.40515,1.53909 2.09343,4.19478 2.23694,6.1769 l 0,11.64831 c 0,12.3622 0.18376,13.78933 1.94113,15.07554 1.06762,0.78139 2.42999,1.42071 3.02749,1.42071 0.5975,0 2.0865,-0.70052 3.30887,-1.5567 2.11463,-1.48115 2.22251,-2.22847 2.22251,-15.39641 0,0 -0.55398,-8.48619 0,-11.33156 0.55398,-2.84537 1.01031,-4.17291 2.27398,-5.61847 1.26367,-1.44555 2.99484,-2.1942 4.74101,-2.70605 5.52507,-0.51891 12.93104,-1.23063 18.01774,1.12584 1.73597,0.89771 3.43976,2.4961 4.45034,4.45034 1.01058,1.95424 1.51693,6.75219 1.51693,20.48307 l 0,17.54966 -4,0 -4,0 0,-17.3 c 0,-12.12222 -0.44957,-17.74957 -1.2,-18.5 -0.75042,-0.75042 -3.495,-1.2 -6.3,-1.2 -2.805,0 -5.57094,0.47095 -6.3,1.2 -0.72905,0.72906 -1.2,5.16269 -1.2,13.03212 0,8.03543 -0.46201,12.93786 -1.43982,15.2781 -0.79191,1.89529 -2.92941,4.35416 -4.75,5.46415 -1.89502,1.15535 -5.06391,2.01975 -7.4123,2.02189 -2.61923,0.002 -5.33042,-0.82213 -7.5,-2.28089 -1.94145,-1.30537 -3.90947,-3.76998 -4.59144,-5.75 -0.65645,-1.90595 -1.21895,-8.66287 -1.25,-15.01537 -0.037,-7.58043 -0.46886,-11.96242 -1.25644,-12.75 -0.66,-0.66 -3.495,-1.2 -6.3,-1.2 -2.805,0 -5.64,0.54 -6.3,1.2 -0.84085,0.84085 -1.2,6.37778 -1.2,18.5 l 0,17.3 -4,0 -4,0 0,-18.5 0,-18.5 -22.06574,0 c -13.29813,0 -22.8343,0.41132 -24,1.03518 -1.46896,0.78617 -1.93426,2.10923 -1.93426,5.5 l 0,4.46482 22,0 22,0 0,4 0,4 -22,0 -22,0 0,4.86514 c 0,3.41952 -0.62052,5.654 -2.0883,7.51998 -1.14856,1.46016 -3.37621,3.32085 -4.95034,4.13486 -2.28729,1.18281 -7.541,1.47927 -26.1617,1.47628 z m 165.20034,0.004 -4,0 0,-22 0,-22 4,0 4,0 0,22 0,22 z"
       id="path5569"
       inkscape:connector-curvature="0"
       sodipodi:nodetypes="csssssscccsssssssssscccsssssscccsscccssssssscssssssscccccssscccccccsssccccccccccc" />
  </g>
</svg>
